<?xml version="1.0" encoding="utf-8"?>
<!-- Generator: Adobe Illustrator 19.2.0, SVG Export Plug-In . SVG Version: 6.00 Build 0)  -->
<svg version="1.1" xmlns="http://www.w3.org/2000/svg" xmlns:xlink="http://www.w3.org/1999/xlink" x="0px" y="0px"
	 viewBox="0 0 59 50" enable-background="new 0 0 59 50" xml:space="preserve">
<g id="Arbeid_og_lønn" display="none">
	<g display="inline">
		<path fill="#414042" d="M33.27,7.728H23.141h-0.075H12.937C4.934,8.318,6.084,18.47,6.039,17.987l0.238-0.156
			c1.18-0.747,2.01-1.198,2.292-1.33l0.073-1.865c0.263-2.367,2.791-4.288,4.971-4.288l9.453,0.038l0.036-0.1l0.039,0.1l9.453-0.038
			c2.186,0,4.743,1.921,5.006,4.288l0.074,1.865c0.281,0.132,1.188,0.583,2.37,1.33l0.238,0.156
			C40.233,18.484,41.076,8.302,33.27,7.728z"/>
		<path fill="#414042" d="M34.601,19.272v-1.817c0-2.126-1.724-3.847-3.85-3.847H15.379c-2.125,0-3.848,1.721-3.848,3.847v1.817
			C10.434,19.78-0.73,25.236,0.038,34.61C0.881,44.887,9.476,50,23.061,50h0.009c13.583,0,22.178-5.113,23.021-15.39
			C46.861,25.236,35.697,19.78,34.601,19.272z"/>
		<circle fill="#414042" cx="18.614" cy="3.864" r="3.864"/>
		<circle fill="#414042" cx="28.804" cy="3.864" r="3.864"/>
	</g>
</g>
<g id="Bank_og_finans" display="none">
	<g display="inline">
		<path fill="#414042" d="M51.078,48.398c0,0.886-0.403,1.602-1.289,1.602H29.976c-0.884,0-1.602-0.716-1.602-1.602v-3.304
			c0-0.883,0.717-1.603,1.602-1.603h19.501c0.886,0,1.601,0.72,1.601,1.603V48.398z"/>
		<path fill="#414042" d="M51.078,37.509c0,0.886-0.716,1.603-1.601,1.603H29.976c-0.884,0-1.602-0.717-1.602-1.603v-3.304
			c0-0.883,0.717-1.602,1.602-1.602h19.501c0.886,0,1.601,0.719,1.601,1.602V37.509z"/>
		<path fill="#414042" d="M51.078,26.59c0,0.885-0.716,1.602-1.601,1.602H29.976c-0.884,0-1.602-0.717-1.602-1.602v-3.304
			c0-0.885,0.717-1.602,1.602-1.602h19.501c0.886,0,1.601,0.717,1.601,1.602V26.59z"/>
		<path fill="#414042" d="M22.704,26.59c0,0.885-0.716,1.602-1.602,1.602h-19.5C0.717,28.191,0,27.475,0,26.59v-3.304
			c0-0.885,0.717-1.602,1.602-1.602h19.5c0.886,0,1.602,0.717,1.602,1.602V26.59z"/>
		<path fill="#414042" d="M51.078,15.637c0,0.886-0.716,1.603-1.601,1.603H29.976c-0.884,0-1.602-0.717-1.602-1.603v-3.302
			c0-0.885,0.717-1.602,1.602-1.602h19.501c0.886,0,1.601,0.716,1.601,1.602V15.637z"/>
		<path fill="#414042" d="M51.078,4.905c0,0.886-0.716,1.602-1.601,1.602H29.976c-0.884,0-1.602-0.716-1.602-1.602V1.602
			C28.374,0.717,29.091,0,29.976,0h19.501c0.886,0,1.601,0.717,1.601,1.602V4.905z"/>
		<path fill="#414042" d="M22.737,48.398c0,0.886-0.716,1.602-1.603,1.602H1.604c-0.885,0-1.602-0.716-1.602-1.602v-3.304
			c0-0.883,0.717-1.603,1.602-1.603h19.531c0.886,0,1.603,0.72,1.603,1.603V48.398z"/>
		<path fill="#414042" d="M22.737,37.509c0,0.886-0.716,1.603-1.603,1.603H1.604c-0.885,0-1.602-0.717-1.602-1.603v-3.304
			c0-0.883,0.717-1.602,1.602-1.602h19.531c0.886,0,1.603,0.719,1.603,1.602V37.509z"/>
	</g>
</g>
<g id="befolkning" display="none">
	<g display="inline">
		<g>
			<ellipse fill="#414042" cx="41.786" cy="7.508" rx="5.459" ry="5.457"/>
			<path fill="#414042" d="M46.485,15.248H37.09c0,0-0.003,0-0.006,0c2.087,0.365,3.683,2.178,3.683,4.372v13.904
				c0,2.309-1.763,4.179-4.008,4.403v9.329c0.135,1.498,1.767,2.688,3.816,2.688h2.419c2.143,0,3.872-1.282,3.872-2.872V35.004
				c1.948-0.203,3.488-1.789,3.488-3.79V19.118C50.354,16.979,48.617,15.248,46.485,15.248z"/>
		</g>
		<g>
			<ellipse fill="#414042" cx="8.566" cy="7.508" rx="5.459" ry="5.457"/>
			<path fill="#414042" d="M13.394,37.927c-2.245-0.223-4.008-2.095-4.008-4.403V19.62c0-2.198,1.596-4.009,3.686-4.372H3.87
				c-2.136,0-3.87,1.731-3.87,3.871v12.096c0,2.001,1.541,3.587,3.488,3.79v12.117c0,1.594,1.729,2.879,3.87,2.879h2.419
				c1.695,0,3.093-0.82,3.617-1.949V37.927z"/>
		</g>
		<g>
			<ellipse fill="#414042" cx="25.073" cy="6.273" rx="6.277" ry="6.274"/>
			<path fill="#414042" d="M30.472,15.171h-10.8c-2.46,0-4.449,1.99-4.449,4.449v13.904c0,2.309,1.762,4.181,4.013,4.403v9.522
				c0,1.409,1.991,2.551,4.447,2.551h2.782c2.461,0,4.449-1.142,4.449-2.551v-9.522c2.247-0.225,4.008-2.095,4.008-4.403V19.62
				C34.922,17.161,32.929,15.171,30.472,15.171z"/>
		</g>
	</g>
</g>
<g id="bygg" display="none">
	<g display="inline">
		<path fill="#414042" d="M50.16,16.695l-6.012-4.09V1.276c0-1.568-7.565-1.568-7.565,0v6.183L25.874,0.175
			c-0.047-0.034-0.092-0.058-0.138-0.083c-0.034-0.013-0.059-0.021-0.095-0.034l0,0c-0.029-0.012-0.062-0.024-0.09-0.027
			c-0.002,0-0.006,0-0.009-0.003c-0.03-0.01-0.056-0.012-0.083-0.016c-0.008,0-0.018-0.006-0.024-0.006
			c-0.024,0-0.047-0.002-0.066-0.002C25.351,0,25.336,0,25.32,0c-0.014,0-0.032,0-0.046,0.003c-0.02,0-0.043,0.002-0.066,0.002
			c-0.007,0-0.016,0.006-0.025,0.006c-0.028,0.003-0.054,0.006-0.08,0.016c-0.006,0.003-0.007,0.003-0.012,0.003
			c-0.028,0.003-0.059,0.015-0.088,0.027H25c-0.032,0.012-0.062,0.021-0.093,0.034c-0.002,0-0.002,0-0.002,0
			c-0.046,0.025-0.092,0.049-0.139,0.083L0.481,16.695C0,17.027-0.144,17.714,0.158,18.234c0.199,0.333,0.532,0.518,0.876,0.518
			c0.188,0,0.377-0.058,0.55-0.175l3.212-2.182v18.507v8.858v3.297C4.797,48.683,6.021,50,7.525,50h11.504V31.907
			c0-1.625,1.223-2.942,2.73-2.942h7.214c1.508,0,2.732,1.317,2.732,2.942V50h11.409c1.51,0,2.73-1.317,2.73-2.942v-3.297V16.392
			l3.212,2.186c0.172,0.117,0.362,0.175,0.552,0.175c0.343,0,0.675-0.187,0.876-0.518C50.785,17.714,50.642,17.027,50.16,16.695z"/>
	</g>
</g>
<g id="energi" display="none">
	<path display="inline" fill="#414042" d="M46.914,0h-7.423c-0.638,0-1.159,0.674-1.159,1.495v26.551L19.405,14.745v11.468L0,14.745
		V50h39.491h0.064h7.358c0.635,0,1.159-0.678,1.159-1.501V1.495C48.073,0.674,47.549,0,46.914,0z"/>
</g>
<g id="helse" display="none">
	<g display="inline">
		<path fill="#414042" d="M0,17.542h17.661V0H32.22v17.542H50v15.075H32.22v17.446H17.661V32.617H0V17.542z"/>
	</g>
</g>
<g id="inntekt" display="none">
	<g display="inline">
		<polygon fill="#414042" points="0,0 0,19.592 9.14,19.592 10.842,7.776 47.961,7.776 49.858,19.592 59.093,19.592 59.093,0 		"/>
		<polygon fill="#414042" points="26.447,48.007 14.492,48.007 17.673,2.698 25.977,2.698 		"/>
		<path fill="#414042" d="M50.565,49.85H8.959c-3.111,0-5.122-2.464-5.122-6.273L9.243,5.929h40.294l5.983,37.353
			C55.543,49.399,51.734,49.85,50.565,49.85z M12.442,9.623L7.513,43.837c0.019,1.45,0.498,2.32,1.447,2.32h41.606
			c0.354,0,1.284,0,1.284-2.58L46.389,9.623H12.442z"/>
	</g>
</g>
<g id="innvandrere" display="none">
	<path display="inline" fill="#414042" d="M30.731,49.931H3.087c-1.378,0-2.499-1.122-2.499-2.501V12.524
		c0-1.379,1.121-2.498,2.499-2.498h27.644c1.376,0,2.497,1.119,2.497,2.498V47.43C33.229,48.809,32.107,49.931,30.731,49.931z
		 M3.087,12.203c-0.176,0-0.32,0.146-0.32,0.322V47.43c0,0.176,0.145,0.321,0.32,0.321h27.644c0.176,0,0.318-0.146,0.318-0.321
		V12.524c0-0.176-0.143-0.322-0.318-0.322H3.087z"/>
	<g display="inline">
		<path fill="#414042" d="M11.925,22.756c-1.521,0.465-3.042,0.927-4.564,1.395c-0.05,0.012-0.1,0.024-0.147,0.042
			c0.138,1.185,0.395,2.349,0.798,3.416c1.335-0.839,2.733-1.495,4.166-2C12.092,24.665,12.008,23.702,11.925,22.756z"/>
		<path fill="#414042" d="M11.612,19.021c-1.389,0.362-2.776,0.541-4.125,0.547c-0.055-0.006-0.118,0.018-0.17,0.012
			c-0.19,1.17-0.258,2.309-0.202,3.44c1.571-0.48,3.138-0.936,4.707-1.41C11.75,20.748,11.691,19.888,11.612,19.021z"/>
		<path fill="#414042" d="M11.063,12.914c-0.007-0.07-0.004-0.109-0.006-0.183c-1.945,1.246-2.933,3.538-3.47,5.592
			c1.284,0.018,2.59-0.149,3.903-0.474C11.349,16.211,11.205,14.558,11.063,12.914z"/>
		<path fill="#414042" d="M16.94,15.479c-0.158-0.31-0.322-0.596-0.504-0.881c-0.772-1.161-1.895-2.243-3.387-2.352
			c-0.211-0.019-0.429-0.012-0.657,0.012c-0.062,0.009-0.134,0.006-0.188,0.012c0.151,1.745,0.322,3.513,0.474,5.254
			C14.149,17.049,15.579,16.348,16.94,15.479z"/>
		<path fill="#414042" d="M5.326,29.694c0.509-0.492,1.061-0.937,1.622-1.355c-0.453-1.188-0.761-2.462-0.909-3.795
			c-0.649,0.197-2.155,0.589-2.544,0.72c0.02,0.167,0.017,0.352,0.046,0.51c0.097,0.535,0.219,1.058,0.406,1.55
			c0.059,0.164,0.132,0.298,0.197,0.449c0.266,0.587,0.565,1.155,0.951,1.642C5.169,29.512,5.247,29.604,5.326,29.694z"/>
		<path fill="#414042" d="M13.455,26.376c0.148,1.75,0.296,3.507,0.445,5.257c0.292-0.143,0.597-0.31,0.857-0.504
			c1.707-1.325,2.563-3.435,3.071-5.355c-1.379-0.018-2.792,0.176-4.206,0.562C13.572,26.336,13.505,26.37,13.455,26.376z"/>
		<path fill="#414042" d="M13.172,22.38l-0.076,0.021c0.081,0.942,0.173,1.89,0.252,2.833c1.584-0.456,3.172-0.708,4.719-0.696
			c0.204-1.243,0.28-2.495,0.213-3.704c-1.675,0.507-3.361,1.021-5.037,1.525L13.172,22.38z"/>
		<path fill="#414042" d="M25.823,1.08c-0.015-0.839-0.611-1.279-1.334-0.992L1.286,9.51C0.565,9.795-0.012,10.707,0,11.54
			l0.565,37.391c0.015,0.832,0.612,1.276,1.333,0.99l23.861-9.512c0.723-0.288,1.301-1.197,1.286-2.033L25.823,1.08z M19.22,24.607
			c0.592,0.067,1.167,0.183,1.726,0.341c0.03-0.043,0.042-0.049,0.018,0.006c-0.006-0.003-0.012-0.003-0.018-0.006
			c-0.097,0.152-0.45,0.756-0.669,1.155c0.012,0,0.024,0.003,0.036,0.006c-0.328,0.535-0.237,0.352-0.036-0.006
			c-0.389-0.095-0.791-0.183-1.191-0.225c-0.049-0.015-0.082-0.037-0.134-0.039c-0.362,1.429-1.607,3.723-4.008,5.619
			c-0.947,0.456-1.933,0.805-2.957,0.941c-2.511-0.422-4.039-1.926-4.525-2.887c-0.02-0.045-0.044-0.091-0.063-0.134
			c-0.427,0.335-0.851,0.653-1.248,1.033c0.515,0.699-1.026-0.328-2.007-2.638c-0.068-0.151-0.138-0.295-0.197-0.449
			c-0.169-0.475-0.309-0.991-0.406-1.55c-0.03-0.158-0.101-0.301-0.122-0.462c-0.065,0.006-0.018-0.018,0.076-0.048
			c-0.044-0.368-0.1-0.729-0.1-1.13c0.846-0.265,1.699-0.502,2.548-0.76c-0.057-1.261,0.029-2.556,0.246-3.863
			c-0.552-0.058-1.089-0.155-1.612-0.307c-0.038-0.012-0.091-0.024-0.134-0.03c-0.045,0.097-0.093,0.188-0.135,0.292
			c0.044-0.097,0.075-0.201,0.119-0.298H4.425l0.003-0.003c0,0.003,0,0.003-0.001,0.003c0.004,0.003,0.011,0.006,0.017,0.006
			c0.374-0.827,0.801-1.492,0.649-1.161c0.44,0.128,0.904,0.207,1.363,0.273c0.819-2.44,2.23-4.315,3.829-5.452
			c-0.111,0.052-0.225,0.091-0.331,0.149c0.207-0.119,0.38-0.258,0.594-0.362c-0.089,0.055-0.176,0.146-0.263,0.213
			c0.935-0.48,1.92-0.83,2.94-0.984c2.44,0.261,4.221,1.914,4.786,2.899c0.419-0.331,0.835-0.678,1.225-1.048
			c-0.222-0.222-0.313-0.325,0.027-0.021c-0.009,0.006-0.018,0.012-0.027,0.021c0.228,0.228,0.593,0.571,0.812,0.763
			c0.012-0.012,0.024-0.024,0.036-0.037c0.034,0.03,0.042,0.049,0.073,0.082c0.122,0.146,0.042,0.088-0.109-0.045
			c-0.496,0.48-1.04,0.906-1.586,1.316c0.428,1.115,0.717,2.313,0.869,3.559c0.863-0.265,1.726-0.529,2.589-0.796
			c-0.009-0.039-0.018-0.079-0.03-0.122c0.009,0.042,0.034,0.079,0.037,0.122c0,0-0.003,0-0.006,0
			c0.055,0.383,0.067,0.784,0.082,1.185c-0.799,0.246-1.601,0.474-2.392,0.717l-0.076,0.018l-0.082,0.024
			C19.536,21.827,19.454,23.221,19.22,24.607z"/>
		<path fill="#414042" d="M12.297,26.759c-1.189,0.432-2.379,0.96-3.498,1.643c-0.407,0.125-0.332,0.374-0.157,0.599
			c0.853,1.495,2.155,2.921,4.082,2.902c-0.147-1.662-0.266-3.327-0.412-4.983C12.312,26.862,12.303,26.813,12.297,26.759z"/>
		<path fill="#414042" d="M17.435,16.651c-0.015-0.049-0.027-0.091-0.039-0.14c-1.471,0.924-3.027,1.653-4.613,2.164
			c0.075,0.857,0.137,1.72,0.208,2.58c1.722-0.514,3.448-1.042,5.165-1.568C18.022,18.633,17.792,17.6,17.435,16.651z"/>
	</g>
	<path display="inline" fill="#FFFFFF" d="M5.703,43.011l-0.198-4.218l0.56-0.219l1.352,1.646c0.31,0.383,0.565,0.735,0.766,1.101
		l0.019-0.013c-0.073-0.547-0.109-1.058-0.14-1.714l-0.083-1.769l0.48-0.183l0.197,4.219l-0.517,0.2l-1.349-1.653
		c-0.298-0.364-0.577-0.747-0.796-1.124l-0.015,0.012c0.055,0.517,0.082,1.021,0.116,1.726l0.082,1.799L5.703,43.011z"/>
	<path display="inline" fill="#FFFFFF" d="M12.801,38.051c0.067,1.447-0.723,2.547-1.726,2.936
		c-1.045,0.407-1.811-0.176-1.869-1.458c-0.064-1.337,0.668-2.517,1.72-2.924C12.005,36.18,12.741,36.793,12.801,38.051z
		 M9.744,39.31c0.043,0.905,0.535,1.531,1.34,1.222c0.805-0.316,1.225-1.289,1.179-2.243c-0.04-0.851-0.489-1.562-1.334-1.233
		C10.084,37.389,9.702,38.386,9.744,39.31z"/>
	<path display="inline" fill="#FFFFFF" d="M13.361,35.784c0.255-0.146,0.626-0.328,0.972-0.462c0.541-0.213,0.906-0.24,1.155-0.104
		c0.201,0.115,0.332,0.358,0.347,0.688c0.024,0.553-0.286,1.045-0.687,1.358l0.003,0.018c0.301-0.003,0.496,0.229,0.611,0.629
		c0.158,0.535,0.268,0.906,0.359,1.04l-0.529,0.206c-0.067-0.104-0.17-0.425-0.301-0.908c-0.143-0.538-0.368-0.672-0.833-0.511
		l-0.48,0.186l0.085,1.829l-0.507,0.194L13.361,35.784z M13.959,37.511l0.52-0.201c0.544-0.213,0.875-0.668,0.851-1.149
		c-0.024-0.547-0.404-0.639-0.942-0.429c-0.243,0.095-0.413,0.18-0.499,0.24L13.959,37.511z"/>
	<path display="inline" fill="#FFFFFF" d="M19.703,37.358c-0.222,0.186-0.671,0.498-1.206,0.705
		c-0.596,0.234-1.088,0.265-1.495,0.019c-0.353-0.216-0.59-0.699-0.62-1.355c-0.061-1.259,0.711-2.498,2.03-3.009
		c0.456-0.18,0.821-0.213,0.994-0.191l-0.106,0.495c-0.216-0.024-0.483,0.003-0.881,0.158c-0.954,0.374-1.55,1.252-1.501,2.312
		c0.049,1.073,0.675,1.468,1.599,1.109c0.331-0.128,0.556-0.268,0.668-0.377l-0.055-1.258l-0.796,0.31l-0.021-0.438l1.297-0.505
		L19.703,37.358z"/>
	<path display="inline" fill="#FFFFFF" d="M22.417,34.48l-1.525,0.593l0.073,1.52l1.705-0.663l0.021,0.456l-2.218,0.869
		l-0.198-4.218l2.13-0.833l0.024,0.456l-1.62,0.632l0.064,1.331l1.526-0.592L22.417,34.48z"/>
</g>
<g id="jord" display="none">
	<g display="inline">
		<g>
			<path fill="#414042" d="M48.72,18.06c1.17,3.12,1.28,5.052,1.28,5.052c-0.392,5.57-1.576,5.1-1.576,5.1l-1.172-4.591
				c-0.386,1.566-0.266,6.126-0.266,6.126c0.784,1.849-0.199,1.754-0.199,1.754c-0.385-1.072-0.775,1.461-0.775,1.461l-3.029,0.013
				c0.198-1.072,1.954-2.449,1.954-2.449c0.293-1.371,0.366-3.873,0.366-3.873c0-3.324-1.071-4.789-1.071-4.789
				c-2.251-3.021-0.975,1.758-0.975,1.758l-1.569,2.738l-2.144,5.986c-0.978-1.174-0.876,0.484-0.876,0.484
				c-0.798,0.333-2.929,0.144-2.929,0.144c-1.173-0.293,2.437-2.776,2.437-2.776c1.368-2.835,1.563-5.596,1.563-5.596l-1.271-3.127
				l-0.684-0.193c-1.072,3.611-1.851,1.657-1.851,1.657c-1.078,1.756-1.466-1.269-1.466-1.269c-0.586,0-2.05-1.07-2.05-1.07
				c-4.785-0.49-10.535-0.541-10.535-0.541l0.107,8.731l0.275,2.545c-0.488,0-0.391,1.172-0.391,1.172
				c-0.293,0.974-3.902,0.588-3.902,0.588l1.517-2.851l-0.791-3.566c-0.812-5.441-2.388-5.79-2.388-5.79
				c-4.098,0.098-6.932-8.292-6.932-8.292c-1.56-4.59-6.803-2.325-6.803-2.325l-1.784-0.212c-2.345-0.197,1.264-4.394,1.264-4.394
				l2.248-4.199L2.74,0.194c0.978-0.489,5.173,0.1,5.173,0.1c3.811-0.78,1.563,1.073,1.563,1.073l2.479,0.957
				c7.445-0.128,8.666,0.084,8.666,0.084c3.255,0.391,6.621,0.814,6.621,0.814c5.955,1.071,13.179,0.096,13.179,0.096l5.857,1.854
				C50.088,5.368,48.72,18.06,48.72,18.06z M47.642,12.497l-0.311-3.441c0,0-0.196,1.214-0.666,3.441c0,0-1.875,2.347,0.492,6.832
				L47.642,12.497z"/>
		</g>
	</g>
</g>
<g id="kultur" display="none">
	<g display="inline">
		<path fill="#414042" d="M11.056,4.114l2.067,5.159l1.601,4.002c0.031,0.08,0.099,0.139,0.182,0.159
			c0.019,0.006,0.043,0.009,0.062,0.009c0.065,0,0.123-0.021,0.173-0.063c1.08-0.921,2.28-1.686,3.569-2.276
			c0.083-0.036,0.139-0.11,0.151-0.199c0.013-0.087-0.012-0.176-0.08-0.237L15.536,7.62l-4.047-3.8"/>
		<path fill="#414042" d="M24.568,0l-1.203,5.427l-0.919,4.159c-0.019,0.086,0.006,0.174,0.064,0.24
			c0.053,0.053,0.121,0.084,0.195,0.084c0.012,0,0.024,0,0.037-0.003C23.495,9.794,24.253,9.738,25,9.738
			c0.62,0,1.246,0.04,1.906,0.123c0.013,0.001,0.025,0.005,0.034,0.005c0.074,0,0.145-0.033,0.194-0.089
			c0.062-0.063,0.083-0.152,0.065-0.236l-0.91-4.114L25.086,0"/>
		<path fill="#414042" d="M49.79,24.358l-5.411-1.206l-4.034-0.899c-0.022-0.004-0.041-0.008-0.062-0.008
			c-0.064,0-0.129,0.026-0.179,0.073c-0.064,0.059-0.093,0.149-0.08,0.236c0.13,0.813,0.197,1.636,0.197,2.445
			c0,0.543-0.03,1.104-0.093,1.669c-0.009,0.085,0.025,0.171,0.087,0.227c0.049,0.045,0.111,0.067,0.179,0.067
			c0.019,0,0.037-0.002,0.056-0.005l3.93-0.877l5.411-1.206c0.124-0.026,0.21-0.135,0.21-0.26C50,24.492,49.914,24.385,49.79,24.358
			z"/>
		<path fill="#414042" d="M7.219,16.896l3.236,2.56c0.046,0.038,0.105,0.058,0.164,0.058c0.025,0,0.049-0.002,0.068-0.008
			c0.08-0.022,0.148-0.081,0.179-0.159c0.521-1.308,1.218-2.537,2.079-3.654c0.055-0.07,0.068-0.165,0.037-0.25
			c-0.031-0.086-0.102-0.15-0.188-0.171l-4.307-1.014l-5.395-1.272c-0.022-0.006-0.043-0.008-0.062-0.008
			c-0.099,0-0.194,0.058-0.241,0.151c-0.052,0.112-0.021,0.247,0.077,0.323L7.219,16.896z"/>
		<path fill="#414042" d="M38,3.611l-4.048,3.8l-3.235,3.036c-0.065,0.062-0.096,0.152-0.084,0.241
			c0.019,0.088,0.08,0.163,0.164,0.197c1.292,0.535,2.508,1.25,3.618,2.128c0.05,0.037,0.104,0.056,0.163,0.056
			c0.023,0,0.047-0.003,0.071-0.008c0.08-0.022,0.146-0.081,0.176-0.159l1.536-3.839l2.058-5.144"/>
		<path fill="#414042" d="M36.75,15.104c-0.027,0.087-0.009,0.184,0.047,0.253c0.889,1.092,1.619,2.299,2.178,3.59
			c0.031,0.076,0.099,0.132,0.179,0.152c0.019,0.005,0.043,0.008,0.062,0.008c0.062,0,0.117-0.02,0.167-0.058l3.162-2.501
			l4.347-3.439c0.065-0.046,0.104-0.124,0.104-0.213c0-0.146-0.114-0.263-0.259-0.266c0,0,0,0-0.006,0c-0.007,0-0.013,0-0.022,0
			c-0.015,0.002-0.027,0.005-0.043,0.008l-5.389,1.271l-4.335,1.022C36.853,14.952,36.778,15.019,36.75,15.104z"/>
		<path fill="#414042" d="M9.532,26.744c0.019,0.005,0.037,0.007,0.056,0.007c0.065,0,0.126-0.023,0.176-0.067
			c0.065-0.058,0.096-0.14,0.089-0.224c-0.049-0.498-0.074-0.989-0.074-1.459c0-0.87,0.08-1.756,0.234-2.641
			c0.006-0.021,0.006-0.043,0.006-0.066c0-0.146-0.117-0.264-0.262-0.264H9.754c-0.003,0-0.006,0-0.012,0
			c-0.016,0-0.031,0.003-0.049,0.007l-4.072,0.905L0.21,24.15C0.086,24.176,0,24.284,0,24.408c0,0.125,0.086,0.233,0.21,0.26
			l5.411,1.206L9.532,26.744z"/>
		<path fill="#414042" d="M35.945,41.007l-1.456-3.646c-0.031-0.076-0.099-0.134-0.176-0.155c-0.021-0.008-0.047-0.012-0.071-0.012
			c-0.056,0-0.114,0.018-0.16,0.054c-1.104,0.825-2.326,1.499-3.628,2c-0.083,0.032-0.148,0.107-0.164,0.197
			c-0.019,0.09,0.012,0.184,0.077,0.246l3.165,2.971l4.047,3.795c0.053,0.05,0.117,0.074,0.183,0.074c0.052,0,0.102-0.019,0.15-0.05
			c0.102-0.068,0.143-0.199,0.093-0.317L35.945,41.007z"/>
		<path fill="#414042" d="M42.544,33.383l-3.141-2.484c-0.046-0.037-0.104-0.056-0.163-0.056c-0.021,0-0.044,0.002-0.068,0.008
			c-0.077,0.021-0.142,0.078-0.176,0.152c-0.549,1.281-1.274,2.487-2.156,3.582c-0.056,0.071-0.074,0.166-0.043,0.254
			c0.03,0.085,0.099,0.15,0.191,0.172l4.288,1.012l5.396,1.271c0.021,0.005,0.04,0.007,0.059,0.007c0.102,0,0.197-0.057,0.24-0.149
			c0.056-0.113,0.024-0.249-0.074-0.325L42.544,33.383z"/>
		<path fill="#414042" d="M12.846,34.384c0.031-0.084,0.015-0.179-0.037-0.252c-0.827-1.105-1.502-2.329-2.005-3.635
			c-0.031-0.079-0.092-0.138-0.179-0.16c-0.019-0.006-0.043-0.009-0.068-0.009c-0.059,0-0.117,0.019-0.164,0.058l-3.174,2.51
			l-4.353,3.443c-0.099,0.078-0.129,0.214-0.077,0.325c0.046,0.094,0.142,0.149,0.241,0.149c0.019,0,0.04-0.001,0.062-0.006
			l5.395-1.272l4.168-0.984C12.744,34.53,12.814,34.468,12.846,34.384z"/>
		<path fill="#414042" d="M25.086,50l1.203-5.428l0.907-4.096c0.006-0.024,0.013-0.048,0.013-0.074c0-0.146-0.121-0.267-0.269-0.267
			l0,0l0,0c-0.003,0-0.003,0-0.009,0c-0.009,0-0.019,0.002-0.028,0.003c-0.663,0.083-1.286,0.123-1.903,0.123
			c-0.747,0-1.505-0.056-2.258-0.168c-0.012-0.003-0.024-0.005-0.037-0.005c-0.074,0-0.142,0.031-0.195,0.086
			c-0.059,0.065-0.083,0.154-0.064,0.239l0.919,4.158L24.568,50"/>
		<path fill="#414042" d="M18.941,39.001c-1.274-0.556-2.468-1.283-3.545-2.164c-0.046-0.04-0.108-0.06-0.169-0.06
			c-0.019,0-0.043,0.003-0.065,0.01c-0.083,0.02-0.148,0.079-0.179,0.156l-1.515,3.786l-2.064,5.159
			c-0.046,0.115-0.003,0.246,0.096,0.32c0.046,0.031,0.099,0.044,0.151,0.044c0.064,0,0.132-0.025,0.182-0.072l4.047-3.798
			l3.134-2.944c0.068-0.061,0.099-0.15,0.081-0.239C19.083,39.111,19.021,39.036,18.941,39.001z"/>
		<path id="sun_1_" fill="#414042" d="M25,14.071c-6.016,0-10.896,4.893-10.896,10.93c0,6.034,4.88,10.928,10.896,10.928
			c6.019,0,10.899-4.893,10.899-10.928C35.899,18.964,31.019,14.071,25,14.071z"/>
	</g>
</g>
<g id="nasjonalregnskap" display="none">
	<g display="inline">
		<polygon fill="#414042" points="14.958,24.862 14.958,50 20.242,50 20.242,20.613 		"/>
		<g>
			<polygon fill="#414042" points="5.271,32.651 5.271,50 10.551,50 10.551,28.404 			"/>
		</g>
		<g>
			<polygon fill="#414042" points="33.912,22.346 33.912,50 39.195,50 39.195,17 			"/>
		</g>
		<polygon fill="#414042" points="22.681,13.555 30.059,19.289 30.649,19.876 30.717,19.806 30.79,19.862 31.295,19.225 
			41.911,8.479 43.852,10.422 45.254,5.211 46.659,0 41.44,1.395 36.234,2.78 38.282,4.841 30.268,12.947 22.61,6.998 22.499,7.141 
			0,24.811 3.198,28.84 		"/>
		<polygon fill="#414042" points="24.228,20.764 24.228,50 29.511,50 29.511,24.828 24.28,20.764 		"/>
	</g>
</g>
<g id="natur" display="none">
	<path display="inline" fill="#414042" d="M44.086,45.736c-2.232-4.179-4.882-8.234-7.686-12.12
		c5.453-6.216,6.527-14.562-1.364-23.168C24.505-1.039,0.002,0.026,0.002,0.026s-0.324,19.405,7.409,30.427
		c7.084,10.1,17.49,11.285,24.388,7.126c4.108,6.516,6.886,11.435,6.946,11.539c0.243,0.436,0.662,0.74,1.149,0.848
		C40.009,49.989,40.13,50,40.252,50c0.368,0,0.729-0.115,1.033-0.338l2.308-1.72C44.278,47.433,44.488,46.493,44.086,45.736z"/>
	<path display="inline" fill="none" stroke="#FFFEFE" stroke-miterlimit="10" d="M3.583,3.417c0,0,23.5,14.583,28.667,29.75"/>
	<path display="inline" fill="none" stroke="#FFFEFE" stroke-miterlimit="10" d="M14.918,9.223c0,0,0.29-3.622,3.947-5.319"/>
	<path display="inline" fill="none" stroke="#FFFEFE" stroke-miterlimit="10" d="M20.233,12.957c0,0,1.646-4.317,7.06-5.601"/>
	<path display="inline" fill="none" stroke="#FFFEFE" stroke-miterlimit="10" d="M25.725,17.527c0,0,2.041-4.144,7.55-4.918"/>
	<path display="inline" fill="none" stroke="#FFFEFE" stroke-miterlimit="10" d="M29.5,22.528c0,0,3.431-3.093,8.836-1.77"/>
	<path display="inline" fill="none" stroke="#FFFEFE" stroke-miterlimit="10" d="M10.461,14.099c0,0-2.978-2.083-6.614-0.345"/>
	<path display="inline" fill="none" stroke="#FFFEFE" stroke-miterlimit="10" d="M15.564,19.87c0,0-4.5-1.049-8.591,2.722"/>
	<path display="inline" fill="none" stroke="#FFFEFE" stroke-miterlimit="10" d="M19.21,24.175c0,0-4.6,0.427-7.291,5.296"/>
	<path display="inline" fill="none" stroke="#FFFEFE" stroke-miterlimit="10" d="M22.9,27.544c0,0-3.778,2.659-3.689,8.223"/>
</g>
<g id="offentlig" display="none">
	<g display="inline">
		<g id="XMLID_3_">
			<g>
				<path fill="#414042" d="M29.527,17.383c-0.141,3.667-0.401,7.578-0.818,11.239c-1.185,10.574-6.494,16.504-13.812,21.531
					C6.862,45.465,1.66,37.831,0.413,26.456c-0.327-2.923-0.401-6.099-0.412-9.208c0.948,0,1.896,0,2.844,0
					c0.028-1.619-1.529-6.895-1.484-8.26c2.415-1.501,7.786-1.027,11.234-1.083C12.431,6.29,12.019,4.316,13.272,3.3
					c0.835-0.677,0.796-0.44,0.812-0.812C14.067,2.86,12.42,2.668,12.73,1.81c0.017-0.57,0.722-0.451,1.219-0.542
					c-0.226-1.083,0.31-1.405,1.354-1.219c0.214,0.197,0.118,0.694,0.135,1.083c0.559,0.209,1.484,0.051,1.219,1.083
					c-0.006,0.626-1.027,0.237-1.219,0.677c1.636,0.677,1.986,3.216,1.083,5.01c1.416-0.135,11.132-0.355,11.68,1.49
					c0.158,0.525-1.664,5.998-1.794,7.854C27.411,17.327,28.737,17.084,29.527,17.383z"/>
			</g>
			<g>
			</g>
		</g>
	</g>
	<path display="inline" fill="#FFFFFF" d="M26.045,11.923c-0.382,0.54,0.328,1.18,0,1.625c-0.591-0.13-0.731-0.709-1.488-0.677
		c-0.197,0.344-0.48,0.604-0.541,1.085c0.299,0.153,0.366,0.538,0.674,0.677c0.598,0.032,0.865-0.763,1.354-0.407
		c0.127,2.575-5.851,2.331-5.011-0.27c0.588,0.044,0.604,0.658,1.354,0.544c0.248-0.449,0.486-1.062,0.137-1.492
		c-0.671-0.509-1.142,0.643-1.625,0.271c-0.07-0.7,0.582-0.681,0.407-1.49c-0.292-0.423-1.297-0.316-1.628,0
		c-0.166,0.768,0.75,0.975,0.273,1.623c-0.515-0.114-0.56-0.703-1.355-0.54c-0.378,0.242-0.378,1.247,0,1.488
		c0.576,0.442,0.941-0.738,1.488-0.267c0.509,2.798-6.13,2.302-5.008-0.273c0.709,0.029,0.874,0.954,1.625,0.541
		c0.328-0.49,0.108-1.402-0.273-1.622c-0.658-0.064-0.928,0.795-1.488,0.407c0.102-0.579,0.633-0.725,0.541-1.491
		c-0.325-0.434-1.313-0.564-1.759-0.135c-0.245,0.953,0.919,1.207,0.271,1.76c-0.467-0.13-0.875-0.852-1.354-0.54
		c-0.458,0.204-0.585,1.297-0.134,1.622c0.97,0.289,1.145-0.776,1.762-0.404c0.07,2.833-5.724,2.528-5.148-0.137
		c0.569,0.07,0.982,0.846,1.491,0.541c0.42-0.216,0.359-1.399,0-1.622c-0.808-0.178-0.836,0.426-1.491,0.407
		c-0.016-0.604,0.474-0.699,0.404-1.356c-0.261-0.378-0.951-0.547-1.488-0.27c-0.407,0.716,0.369,0.953,0.273,1.76
		c-0.655-0.057-0.973-0.75-1.628-0.407c-0.207,0.277-0.207,1.215,0,1.488c0.108,0.032,0.267,0.006,0.273,0.14
		c0.808,0.165,0.868-0.954,1.488-0.544c0.175,2.668-5.418,2.506-5.145,0.137c0.467-0.34,0.671,0.528,1.354,0.407
		c0.643-0.21,0.715-1.425,0.134-1.762c-0.773-0.095-1.087,0.833-1.625,0.54c-0.118-0.662,0.391-0.693,0.271-1.354
		c-0.235-0.354-0.941-0.321-1.355-0.135c0.42,1.858,0.887,3.862,1.221,5.417c7.536,0,15.075,0,22.614,0
		c0.337-1.828,0.979-3.345,1.218-5.281C26.751,11.765,26.424,11.765,26.045,11.923z"/>
	<g display="inline">
		<path fill="#FFFFFF" d="M25.991,9.659c-0.048,0.901,0.01,1.45-0.544,2.03c-1.329-0.383-2.404-1.027-3.79-1.353
			C20.754,7.999,25.257,8.891,25.991,9.659z"/>
		<path fill="#FFFFFF" d="M7.17,8.846c0.165,0.242,0.674,0.846,0.267,1.218c-1.167,0.593-2.448,1.072-3.791,1.49
			c-0.286-0.569-0.509-1.207-0.407-2.167C3.975,8.632,5.717,8.884,7.17,8.846z"/>
		<path fill="#FFFFFF" d="M13.67,9.252c-0.595,0.954-3.196,0.582-4.337,0.542C8.528,7.695,13.104,8.597,13.67,9.252z"/>
		<path fill="#FFFFFF" d="M20.032,9.523c-0.646,1.003-3.409,0.162-4.604,0c0.194-1.118,2.063-0.553,3.113-0.814
			C19.647,8.835,20.137,8.694,20.032,9.523z"/>
	</g>
</g>
<g id="priser" display="none">
	<path display="inline" fill="#414042" d="M46.062,30.083L25.227,3.36c-0.221-0.48-0.679-0.833-1.227-0.9L4.197,0.01
		c-0.408-0.045-0.824,0.064-1.15,0.316C2.721,0.583,2.51,0.957,2.46,1.364L0.011,21.163c-0.061,0.487,0.14,0.964,0.485,1.302
		l20.92,26.836c0.254,0.326,0.629,0.539,1.037,0.588c0.064,0.006,0.128,0.012,0.191,0.012c0.346,0,0.684-0.115,0.959-0.328
		l22.188-17.302C46.471,31.74,46.591,30.761,46.062,30.083z M12.037,11.796c-1.305,1.019-3.188,0.788-4.207-0.521
		c-1.02-1.308-0.785-3.188,0.52-4.21c1.307-1.016,3.191-0.785,4.21,0.523C13.578,8.894,13.343,10.777,12.037,11.796z"/>
</g>
<g id="sosiale" display="none">
	<g display="inline">
		<path fill="#414042" d="M24.115,8.768L16.961,9.52c-0.07-1.284-0.448-2.261-1.132-2.937c-0.685-0.677-1.635-1.015-2.849-1.015
			c-1.127,0-1.985,0.247-2.575,0.74c-0.59,0.496-0.883,1.056-0.883,1.679c0,0.851,0.398,1.667,1.197,2.444
			c0.537,0.522,2.314,1.751,5.332,3.696c3.018,1.945,5.012,3.33,5.983,4.165c1.508,1.265,2.588,2.516,3.239,3.756
			c0.65,1.239,0.976,2.618,0.976,4.123c0,1.612-0.395,3.102-1.184,4.464c-0.789,1.36-1.973,2.597-3.551,3.706
			c1.057,0.974,1.846,2.008,2.367,3.111c0.52,1.1,0.781,2.264,0.781,3.496c0,2.567-0.962,4.718-2.888,6.451
			C19.849,49.134,17.083,50,13.475,50c-3.468,0-6.243-0.856-8.324-2.576c-2.081-1.715-3.312-4.003-3.695-6.868l7.128-0.857
			c0.313,1.56,0.905,2.735,1.783,3.525c0.875,0.791,1.981,1.184,3.317,1.184c1.145,0,2.055-0.298,2.73-0.898
			c0.677-0.598,1.015-1.321,1.015-2.169c0-0.816-0.321-1.546-0.963-2.188c-0.659-0.639-2.969-2.227-6.932-4.749
			c-3.963-2.523-6.543-4.616-7.74-6.279C0.598,26.457,0,24.595,0,22.527c0-1.698,0.391-3.275,1.17-4.733
			c0.781-1.457,1.995-2.652,3.642-3.588c-0.866-0.936-1.521-1.89-1.963-2.865c-0.443-0.967-0.664-1.957-0.664-2.965
			c0-2.34,0.916-4.319,2.745-5.944C6.76,0.812,9.33,0,12.643,0c3.398,0,6.075,0.812,8.026,2.432
			C22.619,4.057,23.769,6.165,24.115,8.768z M17.586,31.166c0.763-0.693,1.331-1.357,1.704-1.989
			c0.373-0.636,0.559-1.243,0.559-1.837c0-0.569-0.2-1.158-0.599-1.767c-0.398-0.604-1.491-1.559-3.277-2.861L8.87,17.56
			c-0.589,0.348-1.11,0.841-1.56,1.483c-0.451,0.642-0.677,1.328-0.677,2.056c0,1.751,1.171,3.415,3.513,4.995L17.586,31.166z"/>
	</g>
</g>
<g id="svalbard" display="none">
	<path display="inline" fill="#414042" d="M42.859,31.178c-0.375,0-0.724-0.189-0.926-0.508c-0.428-0.672-0.462-1.705,0.305-2.385
		c0.146-0.129,0.295-0.229,0.443-0.315c-0.28-0.102-0.579-0.242-0.884-0.404v0.615c0-0.004,0.002-0.006,0.002-0.006
		c0.021,0,0.141,0.789-0.384,1.449c-0.264,0.336-0.771,0.734-1.691,0.734c-1.234,0-6.418,0.049-6.418,0.049
		c-0.903-0.162-2.046-0.549-2.198-1.549c-0.057-0.373-0.005-1.082,0.986-1.633c0.763-0.428,1.627-0.752,2.265-0.965
		c-0.145-0.111-0.261-0.197-0.367-0.277c-0.481-0.352-0.798-0.59-1.292-1.119c-0.678-0.725-0.862-2.244-0.904-3.332l-2.143-0.68
		c-0.347,1.621-0.927,4.068-1.434,4.912c-0.395,0.654-1.118,2.899-1.48,4.158c-0.127,0.441-0.512,0.752-0.968,0.789
		c-0.181,0.016-4.413,0.344-6.029,0.344c-0.41,0-0.632-0.02-0.818-0.068c-0.602-0.164-1.014-0.623-1.273-1.043h-2.76
		c-0.585,0-1.068-0.461-1.095-1.049c-0.044-1,0.456-2.18,1.659-2.41c0.393-0.072,1.026-0.146,1.599-0.201
		c-0.108-0.404-0.24-0.863-0.384-1.33c-0.362-1.184-0.38-4.414-0.367-6.01c-0.491-0.213-1.02-0.488-1.318-0.789
		c-0.402-0.402-0.451-0.93-0.494-1.395c-0.018-0.195-0.057-0.605-0.136-0.693c-0.537-0.189-2.593-0.486-4.245-0.722
		c-2.264-0.327-3.68-0.535-4.238-0.743c-0.628-0.227-0.939-0.508-1.182-0.752c-0.391-0.083-2.469-0.328-3.172-0.811
		c-0.493-0.321-0.835-1.062-1.031-1.618c-0.641-2.042-0.496-2.446-0.407-2.69C0.182,8.438,0.42,7.76,3.005,6.756l0.053-0.342
		C3.11,6.083,3.309,5.796,3.601,5.631l2.714-1.535c0.26-0.703,0.861-1.884,2.004-2.085c0.994-0.165,1.861,0.26,2.343,0.581
		c1.61-0.067,4.917-0.232,5.919-0.379c0.749-0.11,1.639-0.63,2.289-1.003c0.396-0.232,0.725-0.41,0.938-0.489
		c0.589-0.208,2.59-0.917,4.286-0.667c0.827,0.116,1.484,0.486,2.121,0.844c0.681,0.382,1.324,0.743,2.2,0.789l0.415,0.009
		c1.415,0,3.812-0.266,5.563-0.456c0.921-0.104,1.703-0.189,2.171-0.22c1.57-0.11,4.372,0.397,6.191,1.489
		c1.809,1.085,5.489,6.235,5.868,7.315c0.029,0.082,0.123,0.232,0.211,0.375c0.458,0.753,1.302,2.129-0.154,4.245
		c0.183,0.917,0.376,2.386-0.922,6.317c-0.262,0.783,0.048,1.621,0.271,1.896l0.361,0.416c0.557,0.629,1.249,1.416,1.517,2.168
		c0.389,1.086-0.521,3.428-1.07,4.383c-0.29,0.504-0.762,1.191-1.506,1.33c-1.116,0.211-4.129,0.223-4.468,0.223
		C42.862,31.178,42.86,31.178,42.859,31.178z M43.362,25.857c0.649,0,1.363,0.41,1.79,1.064c0.361,0.557,0.435,1.174,0.202,1.705
		c-0.052,0.113-0.113,0.219-0.181,0.312c0.63-0.027,1.21-0.061,1.575-0.109c0.444-0.533,1.104-2.438,1.064-2.967
		c-0.099-0.238-0.705-0.93-1.067-1.34l-0.415-0.476c-0.698-0.863-1.145-2.502-0.654-3.977c1.184-3.586,0.962-4.66,0.856-5.174
		c-0.079-0.379-0.197-0.951,0.275-1.602c0.73-1.01,0.538-1.321,0.156-1.951c-0.141-0.227-0.3-0.489-0.407-0.789
		c-0.303-0.765-3.632-5.389-4.93-6.165c-1.293-0.777-3.332-1.193-4.592-1.193l-0.324,0.009c-0.447,0.031-1.197,0.113-2.079,0.211
		c-1.9,0.208-4.268,0.471-5.803,0.471l-0.527-0.012c-1.389-0.074-2.372-0.624-3.162-1.071c-0.5-0.281-0.933-0.522-1.356-0.581
		c-1.246-0.19-2.766,0.391-3.231,0.56c-0.134,0.052-0.334,0.174-0.585,0.321c-0.803,0.465-1.904,1.101-3.066,1.272
		c-1.431,0.214-6.336,0.416-6.544,0.422C10.052,4.817,9.783,4.708,9.57,4.509C9.474,4.426,9.105,4.163,8.784,4.163
		C8.628,4.246,8.376,4.772,8.288,5.114C8.212,5.402,8.024,5.643,7.766,5.79L5.142,7.276L5.07,7.732
		C5.009,8.127,4.734,8.46,4.355,8.594c-0.82,0.291-1.687,0.683-2.112,0.939c0.066,0.312,0.191,0.777,0.323,1.199
		c0.07,0.195,0.214,0.495,0.281,0.58c0.093,0,0.986,0.196,1.931,0.307c0.812,0.086,1.171,0.391,1.469,0.691
		c0.107,0.106,0.156,0.155,0.379,0.238c0.379,0.137,2.353,0.422,3.793,0.629c2.438,0.35,3.965,0.578,4.623,0.809
		c1.437,0.494,1.567,1.898,1.631,2.574c0.004,0.049,0.007,0.095,0.011,0.141c0.242,0.129,0.694,0.33,1.095,0.471
		c0.442,0.159,0.735,0.588,0.726,1.055c-0.041,2.041,0.012,5.279,0.259,6.082C19.187,25.68,19.504,27,19.504,27
		c0.075,0.312,0.009,0.641-0.179,0.9c-0.055,0.072-0.119,0.143-0.19,0.201c0.106,0.113,0.188,0.25,0.24,0.404
		c0.042,0.121,0.127,0.281,0.193,0.369c0.023-0.008,0.098-0.021,0.173-0.008c1.139,0,3.802-0.184,5.108-0.283
		c0.338-1.105,0.988-3.113,1.489-3.951c0.321-0.531,0.98-3.217,1.408-5.402c0.059-0.307,0.247-0.572,0.515-0.73
		c0.271-0.162,0.595-0.203,0.89-0.104l4.062,1.284c0.464,0.146,0.775,0.58,0.767,1.066c-0.021,1.098,0.141,2.359,0.338,2.646
		c0.36,0.381,0.605,0.559,0.973,0.832c0.24,0.174,0.524,0.385,0.9,0.684c0.813,0.648,0.922,1.316,0.871,1.756
		c-0.081,0.691-0.588,1.162-1.036,1.377c-0.069,0.024-0.263,0.078-0.534,0.158c1.473-0.018,3.355-0.029,4.132-0.033l-0.02-2.606
		c0-0.414,0.232-0.793,0.599-0.976c0.372-0.189,0.81-0.152,1.143,0.092c0.783,0.57,1.717,1.119,2.002,1.182
		C43.353,25.857,43.357,25.857,43.362,25.857z"/>
</g>
<g id="teknologi" display="none">
	<g display="inline">
		<path fill="#414042" d="M25.008,50c-2.688,0-4.935-1.989-5.116-4.531l-0.096-1.347l1.35,0.074c0.097,0,1.976,0,3.861,0
			c1.89,0,3.781,0,3.91-0.003l1.294-0.016l-0.085,1.291C29.945,48.011,27.698,50,25.008,50z M22.775,46.58
			c0.999,1.26,3.467,1.26,4.469,0C25.917,46.58,24.101,46.58,22.775,46.58z"/>
		<path fill="#414042" d="M25.028,12.225c-7.354,0.003-13.338,5.99-13.34,13.345c0.001,4.482,2.185,8.563,5.873,11.052v1.499
			c0.001,2.517,2.053,4.568,4.571,4.568h5.794c2.517,0,4.568-2.052,4.57-4.568v-1.499c3.689-2.489,5.872-6.57,5.874-11.052
			C38.368,18.214,32.384,12.227,25.028,12.225z M30.501,34.88v1.875c-0.002,1.623-1.319,2.941-2.947,2.944h-5.048
			c-1.629-0.003-2.945-1.318-2.948-2.944V34.88c-3.066-1.856-5.12-5.227-5.121-9.068c0.001-5.853,4.741-10.595,10.592-10.595
			c5.852,0,10.591,4.743,10.592,10.595C35.62,29.653,33.567,33.024,30.501,34.88z"/>
		<path fill="#414042" d="M25.537,8.494c-1.491,0-2.702-1.21-2.702-2.7V2.703C22.835,1.21,24.046,0,25.537,0s2.701,1.21,2.701,2.703
			v3.091C28.238,7.284,27.028,8.494,25.537,8.494z"/>
		<path fill="#414042" d="M5.934,30.16H2.702C1.21,30.16,0,28.949,0,27.456c0-1.489,1.21-2.7,2.702-2.7h3.232
			c1.491,0,2.702,1.211,2.702,2.7C8.635,28.949,7.425,30.16,5.934,30.16z"/>
		<path fill="#414042" d="M10.325,13.776c-0.69,0-1.381-0.261-1.909-0.789l-1.657-1.657c-1.055-1.056-1.057-2.762-0.001-3.817
			c1.05-1.062,2.762-1.062,3.819-0.003l1.657,1.654c1.055,1.056,1.057,2.766,0.001,3.821C11.709,13.516,11.017,13.776,10.325,13.776
			z"/>
		<path fill="#414042" d="M47.233,30.16h-3.232c-1.491,0-2.701-1.211-2.701-2.704c0-1.489,1.21-2.7,2.701-2.7h3.232
			c1.491,0,2.701,1.211,2.701,2.7C49.935,28.949,48.725,30.16,47.233,30.16z"/>
		<path fill="#414042" d="M39.609,13.776c-0.691,0-1.382-0.261-1.91-0.791c-1.055-1.055-1.054-2.765,0.001-3.821l1.657-1.654
			c1.058-1.055,2.77-1.058,3.819,0.003c1.056,1.055,1.054,2.762-0.002,3.817l-1.657,1.657C40.992,13.516,40.3,13.776,39.609,13.776z
			"/>
	</g>
</g>
<g id="transport" display="none">
	<path display="inline" fill="#414042" d="M46.629,14.998h-13.82C32.603,11.614,28.853,9,24.067,9s-8.535,2.614-8.742,5.998H1.504
		C0.672,14.998,0,15.675,0,16.502v31.994C0,49.33,0.672,50,1.504,50h45.125c0.832,0,1.505-0.67,1.505-1.504V16.502
		C48.134,15.675,47.461,14.998,46.629,14.998z M24.067,12.008c3.193,0,5.451,1.523,5.719,2.99H18.347
		C18.615,13.531,20.873,12.008,24.067,12.008z"/>
</g>
<g id="Layer_20" display="none">
	<g display="inline">
		<path fill="#414042" d="M34.501,1.595c4.874,1.843,8.187,4.545,11.331,8.333c-1.172,0.59-2.421,1.091-3.662,1.555
			C40.812,8.478,36.115,2.492,29.029,0C31.067,0.43,32.881,0.977,34.501,1.595L34.501,1.595z"/>
		<path fill="#414042" d="M29.342,1.255c4.023,1.518,6.797,5.083,8.584,8.542c0.436,0.854,0.793,1.685,1.161,2.566
			c-3.913,0.98-7.974,1.494-12.083,1.432c0.029-4.381,0.014-8.805,0.045-13.177c0.159,0.028,0.343,0.087,0.513,0.118
			C28.191,0.869,28.773,1.039,29.342,1.255L29.342,1.255z"/>
		<path fill="#414042" d="M22.458,0.083C17.541,1.36,12.938,4.91,9.929,10.453C8.697,9.903,7.458,9.331,6.301,8.66
			C8.727,5.274,14.585,1.021,22.458,0.083L22.458,0.083z"/>
		<path fill="#414042" d="M23.819,0.782c-0.009,0.176-0.034,0.272-0.031,0.451c-0.036,4.115-0.057,8.243-0.086,12.364
			c-3.649-0.309-7.233-0.983-10.702-2.096C14.975,6.938,18.235,2.183,23.819,0.782L23.819,0.782z"/>
		<path fill="#414042" d="M47.879,12.423c0.069,0.105,0.099,0.161,0.175,0.263c2.235,3.447,3.523,7.356,3.771,11.288
			c-2.421-0.087-4.832-0.155-7.241-0.229c-0.104-3.152-0.573-6.3-1.458-9.374C44.764,13.814,46.376,13.205,47.879,12.423
			L47.879,12.423z"/>
		<path fill="#414042" d="M40.057,15.255c0.024,0.136,0.044,0.241,0.069,0.374c0.718,2.612,1.094,5.309,1.187,7.989
			c-4.789-0.164-9.601-0.306-14.397-0.491c0.019-2.147,0.066-4.305,0.082-6.453C31.428,16.757,35.83,16.281,40.057,15.255
			L40.057,15.255z"/>
		<path fill="#414042" d="M23.731,16.547c-0.019,2.162-0.068,4.305-0.085,6.465c-4.372-0.151-8.741-0.35-13.126-0.491
			c0.143-2.795,0.608-5.516,1.429-8.19c0.136,0.052,0.308,0.049,0.458,0.102C16.068,15.539,19.878,16.269,23.731,16.547
			L23.731,16.547z"/>
		<path fill="#414042" d="M51.855,26.917c-0.246,4.224-1.763,8.335-4.266,11.842c-1.488-0.869-3.034-1.639-4.638-2.288
			c0.98-3.179,1.56-6.505,1.676-9.832l0.214,0.013l0.208,0.006C47.319,26.74,49.578,26.852,51.855,26.917L51.855,26.917z"/>
		<path fill="#414042" d="M4.202,10.914c0.121,0.062,0.291,0.142,0.403,0.216c1.375,0.801,2.811,1.484,4.293,2.09
			c-0.915,2.987-1.475,6.063-1.643,9.18c-2.407-0.084-4.817-0.214-7.218-0.281c0.374-3.995,1.756-7.881,4.167-11.209L4.202,10.914z"
			/>
		<path fill="#414042" d="M41.363,26.518c-0.129,2.984-0.651,5.961-1.519,8.821c-4.182-1.317-8.556-2.016-12.971-2.245
			c0.019-2.355,0.011-4.736,0.029-7.092l0.208,0.012l0.208,0.007C31.986,26.188,36.693,26.345,41.363,26.518L41.363,26.518z"/>
		<path fill="#414042" d="M23.64,25.891c-0.02,2.362-0.037,4.779-0.046,7.142c-4.012,0.034-7.963,0.467-11.798,1.395
			c-0.824-2.931-1.229-5.97-1.306-8.976c0.133,0,0.271,0.013,0.417,0.013C15.148,25.612,19.385,25.748,23.64,25.891L23.64,25.891z"
			/>
		<path fill="#414042" d="M7.219,25.328c0.056,3.363,0.566,6.721,1.504,9.992c-1.629,0.544-3.237,1.181-4.74,1.948
			C1.507,33.57,0.167,29.31,0,25.043c0.153,0.01,0.268,0.016,0.419,0.016C2.677,25.146,4.965,25.254,7.219,25.328L7.219,25.328z"/>
		<path fill="#414042" d="M38.874,38.131c-1.846,4.264-4.72,8.679-9.668,10.472c-0.754,0.266-1.629,0.408-2.452,0.52
			c0.034-4.378,0.079-8.78,0.111-13.155c0.146,0.021,0.328,0.003,0.465,0.043C31.271,36.248,35.14,36.953,38.874,38.131
			L38.874,38.131z"/>
		<path fill="#414042" d="M41.918,39.234c0.14,0.05,0.222,0.13,0.357,0.195c1.106,0.467,2.222,1.032,3.273,1.598
			c-2.747,2.736-9.66,7.748-16.926,8.973C36.307,47.48,40.505,42.573,41.918,39.234L41.918,39.234z"/>
		<path fill="#414042" d="M23.635,35.927c-0.001,0.142,0,0.271-0.001,0.407c-0.026,4.155-0.117,8.296-0.139,12.463
			c-5.236-1.561-8.398-6.106-10.335-10.453c-0.415-0.692-0.569-1.354,0.567-1.329C16.941,36.275,20.294,35.985,23.635,35.927
			L23.635,35.927z"/>
		<path fill="#414042" d="M9.688,38.218c0.043,0.12,0.091,0.25,0.138,0.377c1.093,2.761,4.894,7.788,11.716,10.901
			c-6.408-1.326-13.406-6.137-15.5-9.804C7.21,39.107,8.439,38.675,9.688,38.218L9.688,38.218z"/>
	</g>
</g>
<g id="valg" display="none">
	<path display="inline" fill="#414042" d="M18.992,29.995L7.036,15.198L25.842,0l11.959,14.797L18.992,29.995z M11.537,15.676
		l7.934,9.818l13.83-11.174l-7.937-9.818L11.537,15.676z"/>
	<polygon display="inline" fill="#414042" points="8.258,23.059 31.511,23.059 41.042,50 0,50 	"/>
</g>
<g id="varehandel" display="none">
	<path display="inline" fill="#414042" d="M47.329,19.631h-13.29l-5.491,4.989c-1.493,1.355-4.231,0.774-6.116-1.304l-1.23-1.35
		c-0.656-0.724-1.047-1.528-1.313-2.335H3.155C1.413,19.631,0,21.045,0,22.786l4.505,24.059C4.505,48.589,5.917,50,7.66,50h35.481
		c1.742,0,3.155-1.411,3.155-3.155l4.188-24.059C50.484,21.045,49.071,19.631,47.329,19.631z M10.52,42.636L8.013,28.233h9.04
		l0.876,14.402H10.52z M29.437,42.636h-7.408l-0.889-14.402h9.038L29.437,42.636z M40.881,42.636h-7.408l0.794-14.402h9.038
		L40.881,42.636z"/>
	<path display="inline" fill="#414042" d="M28.416,21.982c-1.395,1.267-3.553,1.162-4.819-0.231l-0.824-0.909
		c-1.267-1.396-1.164-3.553,0.231-4.816L39.672,0.884c1.393-1.263,3.553-1.161,4.819,0.234l0.824,0.906
		c1.266,1.396,1.163,3.556-0.231,4.819L28.416,21.982z"/>
</g>
<g id="virksomheter" display="none">
	<path display="inline" fill="#414042" d="M12.587,9.547c-1.831,0-3.339-1.191-3.902-2.827c0.292-2.02,1.955-3.595,4.056-3.595
		H44.99l0.957,0.009C45.542,1.255,43.95,0,41.948,0H9.7C8.393,0,7.276,0.637,6.512,1.572C6.28,1.831,6.097,2.12,5.938,2.428
		C5.91,2.486,5.87,2.535,5.846,2.596C5.61,3.107,5.441,3.656,5.441,4.259v8.116C2.419,12.49,0,14.958,0,18.007
		c0,3.05,2.419,5.517,5.441,5.633v8.816C2.419,32.571,0,35.039,0,38.089c0,3.049,2.419,5.517,5.441,5.633v2.107
		C5.441,48.133,7.305,50,9.613,50h32.249c2.305,0,4.172-1.867,4.172-4.171V9.55L12.587,9.547z M5.654,41.062
		c-1.572,0-2.847-1.276-2.847-2.848c0-1.572,1.275-2.846,2.847-2.846c1.572,0,2.847,1.273,2.847,2.846
		C8.501,39.785,7.226,41.062,5.654,41.062z M5.654,20.855c-1.572,0-2.847-1.276-2.847-2.849c0-1.572,1.275-2.848,2.847-2.848
		c1.572,0,2.847,1.276,2.847,2.848C8.501,19.579,7.226,20.855,5.654,20.855z"/>
</g>
<g id="utdanning">
	<g>
		<path fill="#414042" d="M27.823,0.974c-0.708-1.012-2.21-1.287-3.228-0.581c-6.301,4.374-5.861,10.894-5.84,11.166
			c0.089,1.205,1.105,2.146,2.314,2.146l0.162-0.006c1.27-0.088,2.236-1.198,2.155-2.467c-0.011-0.168-0.215-4.2,3.858-7.027
			C28.294,3.474,28.554,2.025,27.823,0.974z"/>
		<path fill="#414042" d="M11.251,2.438C10.823,2.175,10.36,1.94,9.876,1.747H9.875c-3.788-1.51-8.061-0.293-8.239-0.241
			C1.219,1.628,0.958,2.041,1.031,2.469c0.043,0.232,1.029,5.716,5.062,8.234c0.428,0.266,0.891,0.502,1.377,0.691
			c3.787,1.51,8.062,0.293,8.242,0.242c0.419-0.123,0.674-0.535,0.601-0.966C16.273,10.44,15.285,4.963,11.251,2.438z"/>
		<path fill="#414042" d="M36.664,15.936c-4.567-3.369-10.546-3.057-15.398,0.238h-0.001c-4.85-3.295-10.829-3.607-15.398-0.238
			c-6.421,4.738-7.672,15.387-3.255,23.133C7.028,46.817,10.981,50,14.823,50c3.847,0,4.976-1.693,6.417-1.779
			C22.68,48.139,23.865,50,27.708,50c3.843,0,7.797-3.183,12.214-10.931C44.34,31.323,43.087,20.674,36.664,15.936z"/>
	</g>
	<path fill="#FFFFFF" d="M13.167,18c0,0-6.667,0.776-7.807,7.553c-1.01,6.009,4.807,11.114,4.807,11.114s-2.56-7.631-1.495-11.114
		C10.167,20.667,13.167,18,13.167,18z"/>
</g>
<g id="Logo" display="none">
	
		<ellipse display="inline" fill-rule="evenodd" clip-rule="evenodd" fill="#FFFFFF" cx="25.086" cy="24.999" rx="24.34" ry="24.257"/>
	<g display="inline">
		<path fill-rule="evenodd" clip-rule="evenodd" fill="#414042" d="M24.152,18.135l2.666,11.888l22.285-12.25
			C45.991,7.489,36.418,0,25.085,0C11.231,0,0,11.189,0,24.998c0,1.979,0.238,3.898,0.674,5.746L24.152,18.135z"/>
		<path fill-rule="evenodd" clip-rule="evenodd" fill="#414042" d="M25.628,32.791l-2.831-12.178L1.098,32.328
			C4.242,42.556,13.791,50,25.085,50c13.853,0,25.086-11.194,25.086-25.002c0-1.88-0.217-3.71-0.611-5.47L25.628,32.791z"/>
	</g>
</g>
</svg>
