<?xml version="1.0" encoding="utf-8"?>
<!-- Generator: Adobe Illustrator 16.0.0, SVG Export Plug-In . SVG Version: 6.00 Build 0)  -->
<!DOCTYPE svg PUBLIC "-//W3C//DTD SVG 1.1//EN" "http://www.w3.org/Graphics/SVG/1.1/DTD/svg11.dtd">
<svg version="1.1" id="Layer_1" xmlns="http://www.w3.org/2000/svg" xmlns:xlink="http://www.w3.org/1999/xlink" x="0px" y="0px"
	 width="841.889px" height="595.281px" viewBox="0 0 841.889 595.281" enable-background="new 0 0 841.889 595.281"
	 xml:space="preserve">
<g id="Arbeid_og_lønn" display="none">
	<g display="inline">
		<path fill="#414042" d="M465.828,92.007H345.238h-0.894H223.752c-95.28,7.024-81.589,127.89-82.125,122.14l2.834-1.857
			c14.049-8.894,23.93-14.263,27.287-15.834l0.869-22.204c3.132-28.181,33.229-51.052,59.183-51.052l112.544,0.453l0.429-1.191
			l0.465,1.191l112.543-0.453c26.025,0,56.468,22.871,59.6,51.052l0.881,22.204c3.346,1.571,14.144,6.94,28.216,15.834l2.834,1.857
			C548.728,220.063,558.764,98.841,465.828,92.007z"/>
		<path fill="#414042" d="M481.675,229.445v-21.633c0-25.312-20.525-45.801-45.837-45.801H252.825
			c-25.299,0-45.812,20.489-45.812,45.801v21.633c-13.061,6.048-145.975,71.005-136.831,182.608
			c10.036,122.354,112.365,183.228,274.103,183.228h0.107c161.714,0,264.042-60.874,274.079-183.228
			C627.638,300.45,494.724,235.493,481.675,229.445z"/>
		<circle fill="#414042" cx="291.34" cy="46.003" r="46.003"/>
		<circle fill="#414042" cx="412.658" cy="46.003" r="46.003"/>
	</g>
</g>
<g id="Bank_og_finans" display="none">
	<g display="inline">
		<path fill="#414042" d="M677.844,576.208c0,10.548-4.798,19.073-15.347,19.073H426.612c-10.524,0-19.072-8.525-19.072-19.073
			v-39.336c0-10.513,8.536-19.085,19.072-19.085h232.171c10.549,0,19.062,8.572,19.062,19.085V576.208z"/>
		<path fill="#414042" d="M677.844,446.567c0,10.549-8.524,19.085-19.062,19.085H426.612c-10.524,0-19.072-8.536-19.072-19.085
			v-39.336c0-10.513,8.536-19.072,19.072-19.072h232.171c10.549,0,19.062,8.56,19.062,19.072V446.567z"/>
		<path fill="#414042" d="M677.844,316.57c0,10.537-8.524,19.073-19.062,19.073H426.612c-10.524,0-19.072-8.536-19.072-19.073
			v-39.336c0-10.537,8.536-19.073,19.072-19.073h232.171c10.549,0,19.062,8.536,19.062,19.073V316.57z"/>
		<path fill="#414042" d="M340.034,316.57c0,10.537-8.524,19.073-19.073,19.073H88.802c-10.536-0.012-19.072-8.536-19.072-19.073
			v-39.336c0-10.537,8.536-19.073,19.072-19.073h232.159c10.549,0,19.073,8.536,19.073,19.073V316.57L340.034,316.57z"/>
		<path fill="#414042" d="M677.844,186.168c0,10.549-8.524,19.085-19.062,19.085H426.612c-10.524,0-19.072-8.536-19.072-19.085
			v-39.312c0-10.536,8.536-19.072,19.072-19.072h232.171c10.549,0,19.062,8.524,19.062,19.072V186.168z"/>
		<path fill="#414042" d="M677.844,58.397c0,10.548-8.524,19.072-19.062,19.072H426.612c-10.524,0-19.072-8.524-19.072-19.072
			V19.073C407.539,8.536,416.075,0,426.612,0h232.171c10.549,0,19.062,8.536,19.062,19.073V58.397z"/>
		<path fill="#414042" d="M340.427,576.208c0,10.548-8.524,19.073-19.085,19.073H88.826c-10.537,0-19.073-8.525-19.073-19.073
			v-39.336c0-10.513,8.536-19.085,19.073-19.085h232.528c10.548,0,19.084,8.572,19.084,19.085v39.336H340.427z"/>
		<path fill="#414042" d="M340.427,446.567c0,10.549-8.524,19.085-19.085,19.085H88.826c-10.537,0-19.073-8.536-19.073-19.085
			v-39.336c0-10.513,8.536-19.072,19.073-19.072h232.528c10.548,0,19.084,8.56,19.084,19.072v39.336H340.427z"/>
	</g>
</g>
<g id="befolkning" display="none">
	<g display="inline">
		<g>
			<ellipse fill="#414042" cx="567.217" cy="89.387" rx="64.992" ry="64.969"/>
			<path fill="#414042" d="M623.161,181.537H511.308c0,0-0.035,0-0.071,0c24.847,4.346,43.849,25.931,43.849,52.051v165.536
				c0,27.49-20.989,49.754-47.718,52.42v111.067c1.607,17.835,21.037,32.003,45.432,32.003h28.8
				c25.514,0,46.099-15.263,46.099-34.193V416.744c23.191-2.417,41.526-21.299,41.526-45.122V227.611
				C669.224,202.145,648.544,181.537,623.161,181.537z"/>
		</g>
		<g>
			<ellipse fill="#414042" cx="171.713" cy="89.387" rx="64.992" ry="64.969"/>
			<path fill="#414042" d="M229.194,451.544c-26.729-2.654-47.718-24.941-47.718-52.42V233.588
				c0-26.168,19.001-47.729,43.884-52.051H115.804c-25.431,0-46.074,20.608-46.074,46.087v144.01
				c0,23.823,18.347,42.706,41.526,45.122v144.261c0,18.978,20.585,34.276,46.075,34.276h28.799
				c20.181,0,36.824-9.763,43.063-23.204V451.544L229.194,451.544z"/>
		</g>
		<g>
			<ellipse fill="#414042" cx="368.239" cy="74.684" rx="74.731" ry="74.696"/>
			<path fill="#414042" d="M432.517,180.62h-128.58c-29.288,0-52.969,23.692-52.969,52.968v165.536
				c0,27.49,20.979,49.777,47.777,52.42v113.365c0,16.775,23.704,30.371,52.944,30.371h33.122c29.299,0,52.968-13.596,52.968-30.371
				V451.544c26.752-2.679,47.717-24.941,47.717-52.42V233.588C485.496,204.312,461.769,180.62,432.517,180.62z"/>
		</g>
	</g>
</g>
<g id="bygg" display="none">
	<g display="inline">
		<path fill="#414042" d="M666.914,198.764l-71.576-48.694V15.191c0-18.668-90.066-18.668-90.066,0v73.612L377.775,2.084
			c-0.56-0.405-1.095-0.69-1.643-0.988c-0.404-0.155-0.702-0.25-1.131-0.405l0,0c-0.346-0.143-0.738-0.285-1.071-0.321
			c-0.024,0-0.072,0-0.107-0.035c-0.357-0.119-0.667-0.144-0.988-0.19c-0.096,0-0.214-0.072-0.286-0.072
			c-0.285,0-0.56-0.023-0.785-0.023C371.548,0,371.369,0,371.179,0c-0.166,0-0.381,0-0.547,0.036c-0.238,0-0.513,0.023-0.786,0.023
			c-0.083,0-0.19,0.071-0.298,0.071c-0.333,0.036-0.643,0.072-0.952,0.19c-0.071,0.036-0.083,0.036-0.143,0.036
			c-0.334,0.036-0.703,0.179-1.048,0.321h-0.036c-0.381,0.143-0.738,0.25-1.107,0.405c-0.023,0-0.023,0-0.023,0
			c-0.548,0.297-1.096,0.583-1.655,0.988L75.456,198.764c-5.727,3.952-7.441,12.132-3.846,18.322
			c2.369,3.965,6.334,6.167,10.43,6.167c2.238,0,4.488-0.69,6.548-2.083l38.24-25.979V415.53v105.46v39.252
			c0.013,19.359,14.585,35.039,32.491,35.039h136.962V379.873c0-19.347,14.561-35.026,32.502-35.026h85.887
			c17.954,0,32.526,15.68,32.526,35.026v215.408h135.831c17.978,0,32.502-15.68,32.502-35.026v-39.253V195.157l38.241,26.025
			c2.048,1.393,4.31,2.083,6.571,2.083c4.084,0,8.037-2.226,10.43-6.167C674.356,210.896,672.653,202.717,666.914,198.764z"/>
	</g>
</g>
<g id="energi" display="none">
	<path display="inline" fill="#414042" d="M628.269,0h-88.375c-7.596,0-13.799,8.024-13.799,17.799v316.106L300.758,175.549v136.533
		L69.73,175.549v419.732h470.164h0.762h87.602c7.56,0,13.799-8.072,13.799-17.871V17.799C642.068,8.024,635.828,0,628.269,0z"/>
</g>
<g id="helse" display="none">
	<g display="inline">
		<path fill="#414042" d="M69.73,208.848h210.265V0h173.333v208.849H665.01v179.477H453.327v207.706H279.994V388.325H69.73V208.848z
			"/>
	</g>
</g>
<g id="inntekt" display="none">
	<g display="inline">
		<polygon fill="#414042" points="69.73,0 69.73,233.255 178.547,233.255 198.81,92.578 640.734,92.578 663.319,233.255 
			773.267,233.255 773.267,0 		"/>
		<polygon fill="#414042" points="384.597,571.552 242.266,571.552 280.137,32.122 379.001,32.122 		"/>
		<path fill="#414042" d="M671.737,593.495H176.392c-37.038,0-60.98-29.336-60.98-74.685l64.361-448.222h479.725l71.231,444.71
			C731.002,588.125,685.654,593.495,671.737,593.495z M217.859,114.568l-58.683,407.338c0.227,17.264,5.93,27.621,17.228,27.621
			h495.345c4.215,0,15.286,0,15.286-30.716l-65.017-404.243H217.859z"/>
	</g>
</g>
<g id="innvandrere" display="none">
	<path display="inline" fill="#414042" d="M435.601,594.459H106.482c-16.405,0-29.752-13.357-29.752-29.775V149.106
		c0-16.418,13.347-29.74,29.752-29.74h329.119c16.382,0,29.728,13.322,29.728,29.74v415.577
		C465.34,581.101,451.983,594.459,435.601,594.459z M106.482,145.284c-2.095,0-3.81,1.738-3.81,3.834v415.565
		c0,2.095,1.727,3.821,3.81,3.821h329.119c2.095,0,3.785-1.738,3.785-3.821V149.106c0-2.096-1.702-3.834-3.785-3.834H106.482
		V145.284z"/>
	<g display="inline">
		<path fill="#414042" d="M211.703,270.924c-18.108,5.536-36.217,11.037-54.337,16.608c-0.595,0.144-1.19,0.286-1.75,0.5
			c1.643,14.108,4.703,27.967,9.501,40.67c15.894-9.988,32.538-17.799,49.599-23.811
			C213.692,293.652,212.692,282.186,211.703,270.924z"/>
		<path fill="#414042" d="M207.978,226.457c-16.537,4.31-33.051,6.44-49.111,6.512c-0.654-0.071-1.404,0.215-2.023,0.144
			c-2.263,13.93-3.072,27.49-2.405,40.955c18.704-5.715,37.36-11.144,56.04-16.787C209.62,247.017,208.918,236.779,207.978,226.457z
			"/>
		<path fill="#414042" d="M201.442,153.749c-0.084-0.833-0.048-1.298-0.072-2.179c-23.156,14.835-34.919,42.122-41.312,66.576
			c15.287,0.215,30.836-1.773,46.468-5.644C204.846,193.002,203.132,173.322,201.442,153.749z"/>
		<path fill="#414042" d="M271.41,184.287c-1.881-3.69-3.834-7.096-6-10.489c-9.191-13.822-22.562-26.704-40.324-28.002
			c-2.513-0.226-5.108-0.143-7.822,0.144c-0.738,0.106-1.596,0.071-2.238,0.143c1.798,20.775,3.833,41.824,5.644,62.552
			C238.182,202.978,255.207,194.633,271.41,184.287z"/>
		<path fill="#414042" d="M133.139,353.525c6.06-5.857,12.632-11.155,19.311-16.132c-5.394-14.144-9.06-29.312-10.822-45.182
			c-7.727,2.345-25.656,7.012-30.288,8.571c0.238,1.988,0.203,4.191,0.548,6.072c1.155,6.369,2.607,12.597,4.834,18.454
			c0.702,1.952,1.571,3.548,2.346,5.346c3.167,6.988,6.727,13.751,11.322,19.549C131.27,351.358,132.198,352.454,133.139,353.525z"
			/>
		<path fill="#414042" d="M229.919,314.022c1.763,20.835,3.524,41.753,5.298,62.588c3.477-1.702,7.108-3.69,10.203-6
			c20.323-15.775,30.515-40.896,36.562-63.755c-16.418-0.214-33.24,2.096-50.075,6.691
			C231.313,313.547,230.515,313.951,229.919,314.022z"/>
		<path fill="#414042" d="M226.55,266.447l-0.905,0.25c0.965,11.216,2.061,22.502,3.001,33.729
			c18.858-5.43,37.765-8.43,56.183-8.287c2.429-14.798,3.333-29.704,2.535-44.098c-19.941,6.036-40.015,12.155-59.968,18.155
			L226.55,266.447z"/>
		<path fill="#414042" d="M377.168,12.858c-0.179-9.989-7.274-15.228-15.883-11.811L85.04,113.222
			c-8.584,3.393-15.454,14.251-15.311,24.168l6.727,445.163c0.179,9.905,7.286,15.191,15.87,11.786l284.079-113.246
			c8.608-3.429,15.489-14.251,15.311-24.204L377.168,12.858z M298.555,292.962c7.049,0.797,13.895,2.179,20.549,4.06
			c0.357-0.512,0.501-0.584,0.215,0.071c-0.071-0.036-0.143-0.036-0.215-0.071c-1.154,1.81-5.357,9.001-7.965,13.751
			c0.144,0,0.286,0.036,0.429,0.071c-3.904,6.37-2.821,4.191-0.429-0.071c-4.631-1.131-9.417-2.179-14.179-2.679
			c-0.584-0.179-0.977-0.44-1.596-0.464c-4.31,17.013-19.133,44.324-47.718,66.897c-11.274,5.429-23.014,9.584-35.205,11.203
			c-29.895-5.024-48.087-22.931-53.873-34.372c-0.237-0.535-0.523-1.083-0.75-1.595c-5.083,3.988-10.131,7.774-14.857,12.298
			c6.131,8.322-12.216-3.904-23.895-31.406c-0.81-1.798-1.644-3.513-2.346-5.346c-2.012-5.655-3.679-11.799-4.834-18.454
			c-0.357-1.881-1.202-3.584-1.452-5.5c-0.774,0.071-0.215-0.215,0.904-0.572c-0.523-4.381-1.19-8.679-1.19-13.453
			c10.072-3.155,20.228-5.977,30.336-9.048c-0.679-15.014,0.345-30.431,2.929-45.991c-6.572-0.691-12.965-1.846-19.192-3.655
			c-0.452-0.143-1.083-0.286-1.595-0.357c-0.536,1.155-1.107,2.238-1.607,3.477c0.523-1.155,0.893-2.394,1.417-3.548h-0.024
			l0.036-0.036c0,0.036,0,0.036-0.012,0.036c0.048,0.035,0.131,0.071,0.202,0.071c4.453-9.846,9.536-17.763,7.727-13.822
			c5.238,1.523,10.763,2.465,16.228,3.25c9.751-29.05,26.55-51.372,45.587-64.909c-1.322,0.619-2.679,1.083-3.941,1.773
			c2.465-1.416,4.524-3.071,7.072-4.31c-1.06,0.655-2.096,1.738-3.131,2.536c11.132-5.715,22.858-9.882,35.002-11.715
			c29.05,3.107,50.254,22.787,56.98,34.514c4.988-3.94,9.941-8.071,14.584-12.477c-2.643-2.644-3.727-3.869,0.321-0.25
			c-0.106,0.071-0.214,0.143-0.321,0.25c2.715,2.714,7.061,6.798,9.668,9.084c0.143-0.143,0.285-0.286,0.429-0.44
			c0.404,0.357,0.5,0.583,0.869,0.976c1.452,1.738,0.5,1.048-1.298-0.535c-5.905,5.715-12.382,10.786-18.883,15.668
			c5.096,13.274,8.536,27.537,10.346,42.372c10.275-3.155,20.55-6.299,30.824-9.478c-0.107-0.464-0.215-0.94-0.357-1.452
			c0.107,0.5,0.405,0.94,0.44,1.452c0,0-0.035,0-0.071,0c0.655,4.561,0.798,9.334,0.977,14.108
			c-9.513,2.929-19.062,5.644-28.479,8.536l-0.904,0.215l-0.977,0.285C302.318,259.864,301.341,276.46,298.555,292.962z"/>
		<path fill="#414042" d="M216.133,318.583c-14.156,5.143-28.324,11.429-41.646,19.561c-4.846,1.488-3.952,4.452-1.869,7.132
			c10.155,17.799,25.657,34.775,48.599,34.55c-1.75-19.787-3.167-39.61-4.905-59.326
			C216.311,319.808,216.204,319.225,216.133,318.583z"/>
		<path fill="#414042" d="M277.304,198.24c-0.179-0.583-0.321-1.083-0.465-1.667c-17.513,11.001-36.038,19.681-54.92,25.765
			c0.893,10.203,1.631,20.478,2.476,30.716c20.502-6.119,41.051-12.405,61.493-18.668
			C284.292,221.838,281.554,209.539,277.304,198.24z"/>
	</g>
	<path display="inline" fill="#FFFFFF" d="M137.627,512.072l-2.357-50.218l6.667-2.607l16.097,19.597
		c3.69,4.56,6.727,8.751,9.119,13.108l0.227-0.155c-0.869-6.512-1.298-12.596-1.667-20.406l-0.988-21.061l5.715-2.179l2.346,50.229
		l-6.155,2.381l-16.061-19.68c-3.548-4.333-6.87-8.894-9.477-13.382l-0.179,0.143c0.654,6.155,0.976,12.156,1.381,20.55
		l0.977,21.418L137.627,512.072z"/>
	<path display="inline" fill="#FFFFFF" d="M222.133,453.02c0.798,17.228-8.607,30.323-20.549,34.955
		c-12.441,4.846-21.562-2.096-22.252-17.358c-0.762-15.918,7.953-29.967,20.478-34.812
		C212.656,430.745,221.419,438.043,222.133,453.02z M185.738,468.01c0.512,10.774,6.369,18.228,15.954,14.549
		c9.584-3.763,14.584-15.347,14.036-26.704c-0.477-10.132-5.821-18.597-15.882-14.68
		C189.785,445.138,185.238,457.009,185.738,468.01z"/>
	<path display="inline" fill="#FFFFFF" d="M228.8,426.03c3.036-1.738,7.453-3.904,11.572-5.5c6.441-2.536,10.787-2.857,13.751-1.238
		c2.394,1.369,3.953,4.263,4.132,8.191c0.285,6.584-3.405,12.441-8.18,16.168l0.036,0.214c3.583-0.035,5.905,2.727,7.274,7.488
		c1.881,6.37,3.19,10.787,4.273,12.382l-6.298,2.453c-0.798-1.238-2.023-5.06-3.584-10.811c-1.702-6.405-4.381-8-9.917-6.084
		l-5.715,2.215l1.013,21.775l-6.036,2.31L228.8,426.03z M235.92,446.592l6.19-2.394c6.477-2.535,10.418-7.952,10.132-13.679
		c-0.286-6.513-4.81-7.608-11.215-5.108c-2.894,1.132-4.917,2.144-5.941,2.857L235.92,446.592z"/>
	<path display="inline" fill="#FFFFFF" d="M304.306,444.77c-2.644,2.214-7.989,5.929-14.358,8.394
		c-7.096,2.785-12.953,3.154-17.799,0.226c-4.203-2.571-7.024-8.322-7.382-16.132c-0.726-14.989,8.465-29.74,24.169-35.824
		c5.429-2.143,9.774-2.536,11.834-2.273l-1.262,5.893c-2.572-0.285-5.751,0.036-10.489,1.882
		c-11.358,4.452-18.454,14.905-17.87,27.525c0.583,12.774,8.036,17.478,19.037,13.203c3.94-1.523,6.619-3.19,7.953-4.488
		l-0.655-14.978l-9.477,3.691l-0.25-5.215l15.441-6.013L304.306,444.77z"/>
	<path display="inline" fill="#FFFFFF" d="M336.617,410.506l-18.156,7.06l0.869,18.097l20.299-7.894l0.25,5.43l-26.406,10.346
		l-2.357-50.218l25.359-9.918l0.285,5.43l-19.287,7.524l0.762,15.846l18.169-7.048L336.617,410.506z"/>
</g>
<g id="jord" display="none">
	<g display="inline">
		<g>
			<path fill="#414042" d="M649.77,215.015c13.93,37.146,15.24,60.147,15.24,60.147c-4.668,66.313-18.764,60.719-18.764,60.719
				l-13.953-54.659c-4.596,18.645-3.167,72.934-3.167,72.934c9.334,22.014-2.369,20.883-2.369,20.883
				c-4.584-12.763-9.228,17.394-9.228,17.394l-36.062,0.155c2.357-12.763,23.264-29.157,23.264-29.157
				c3.488-16.322,4.357-46.11,4.357-46.11c0-39.574-12.751-57.016-12.751-57.016c-26.8-35.967-11.608,20.93-11.608,20.93
				l-18.68,32.598l-25.525,71.268c-11.644-13.978-10.43,5.762-10.43,5.762c-9.501,3.965-34.871,1.715-34.871,1.715
				c-13.966-3.488,29.014-33.05,29.014-33.05c16.287-33.753,18.608-66.624,18.608-66.624l-15.132-37.229l-8.144-2.298
				c-12.763,42.991-22.037,19.728-22.037,19.728c-12.834,20.906-17.454-15.107-17.454-15.107c-6.977,0-24.406-12.739-24.406-12.739
				c-56.968-5.834-125.425-6.441-125.425-6.441l1.273,103.948l3.274,30.3c-5.811,0-4.655,13.953-4.655,13.953
				c-3.488,11.597-46.456,7.001-46.456,7.001l18.061-33.943l-9.417-42.455c-9.667-64.778-28.431-68.934-28.431-68.934
				c-48.789,1.167-82.529-98.722-82.529-98.722c-18.573-54.646-80.994-27.681-80.994-27.681l-21.239-2.523
				c-27.919-2.346,15.049-52.313,15.049-52.313l26.764-49.991L102.351,2.309c11.644-5.821,61.588,1.191,61.588,1.191
				c45.372-9.287,18.608,12.774,18.608,12.774l29.514,11.394c88.638-1.524,103.174,1,103.174,1
				c38.753,4.655,78.827,9.691,78.827,9.691c70.897,12.751,156.904,1.143,156.904,1.143l69.73,22.073
				C666.057,63.909,649.77,215.015,649.77,215.015z M636.936,148.784l-3.702-40.967c0,0-2.334,14.453-7.93,40.967
				c0,0-22.323,27.943,5.858,81.34L636.936,148.784z"/>
		</g>
	</g>
</g>
<g id="kultur" display="none">
	<g display="inline">
		<path fill="#414042" d="M201.358,48.979l24.609,61.422l19.061,47.646c0.369,0.953,1.179,1.655,2.167,1.894
			c0.226,0.071,0.512,0.106,0.738,0.106c0.773,0,1.464-0.25,2.06-0.75c12.857-10.965,27.145-20.072,42.491-27.097
			c0.988-0.429,1.654-1.31,1.798-2.369c0.154-1.036-0.144-2.096-0.953-2.822L254.695,90.72l-48.182-45.241"/>
		<path fill="#414042" d="M362.227,0l-14.323,64.612l-10.94,49.515c-0.227,1.024,0.071,2.072,0.762,2.857
			c0.631,0.632,1.44,1,2.321,1c0.143,0,0.286,0,0.44-0.035c8.965-1.346,17.989-2.012,26.883-2.012
			c7.382,0,14.835,0.476,22.692,1.464c0.154,0.012,0.298,0.06,0.404,0.06c0.882,0,1.727-0.393,2.311-1.06
			c0.737-0.75,0.987-1.81,0.773-2.81l-10.834-48.979L368.394,0"/>
		<path fill="#414042" d="M662.509,289.997l-64.421-14.358l-48.027-10.703c-0.262-0.048-0.488-0.095-0.738-0.095
			c-0.762,0-1.535,0.31-2.131,0.869c-0.762,0.702-1.107,1.773-0.952,2.81c1.548,9.679,2.345,19.478,2.345,29.109
			c0,6.465-0.356,13.144-1.107,19.87c-0.106,1.012,0.298,2.036,1.036,2.703c0.584,0.535,1.321,0.797,2.132,0.797
			c0.226,0,0.439-0.023,0.666-0.06l46.789-10.44l64.422-14.358c1.476-0.31,2.5-1.607,2.5-3.096
			C665.01,291.593,663.986,290.318,662.509,289.997z"/>
		<path fill="#414042" d="M155.676,201.157l38.526,30.479c0.548,0.452,1.25,0.69,1.953,0.69c0.297,0,0.583-0.023,0.81-0.095
			c0.952-0.263,1.762-0.965,2.131-1.894c6.202-15.572,14.501-30.204,24.752-43.503c0.654-0.833,0.81-1.965,0.44-2.977
			c-0.369-1.023-1.215-1.786-2.238-2.036l-51.277-12.072l-64.231-15.144c-0.262-0.071-0.512-0.096-0.738-0.096
			c-1.178,0-2.31,0.691-2.869,1.798c-0.619,1.334-0.25,2.941,0.917,3.846L155.676,201.157z"/>
		<path fill="#414042" d="M522.142,42.991l-48.193,45.241l-38.515,36.146c-0.774,0.738-1.144,1.81-1,2.869
			c0.226,1.048,0.952,1.941,1.952,2.346c15.382,6.369,29.859,14.882,43.074,25.335c0.596,0.44,1.238,0.667,1.941,0.667
			c0.273,0,0.56-0.036,0.845-0.096c0.953-0.262,1.738-0.964,2.096-1.893l18.287-45.706l24.502-61.242"/>
		<path fill="#414042" d="M507.26,179.822c-0.321,1.036-0.107,2.19,0.56,3.013c10.584,13.001,19.275,27.371,25.931,42.741
			c0.369,0.904,1.179,1.571,2.131,1.81c0.227,0.06,0.512,0.095,0.738,0.095c0.738,0,1.393-0.238,1.988-0.69l37.646-29.775
			l51.754-40.943c0.773-0.548,1.238-1.477,1.238-2.536c0-1.738-1.357-3.132-3.084-3.167c0,0,0,0-0.071,0c-0.083,0-0.154,0-0.262,0
			c-0.179,0.023-0.321,0.06-0.512,0.095l-64.16,15.133l-51.61,12.167C508.487,178.012,507.594,178.81,507.26,179.822z"/>
		<path fill="#414042" d="M183.214,318.404c0.226,0.06,0.44,0.083,0.666,0.083c0.774,0,1.5-0.273,2.096-0.798
			c0.773-0.69,1.143-1.667,1.06-2.667c-0.583-5.929-0.881-11.774-0.881-17.37c0-10.358,0.952-20.906,2.786-31.442
			c0.071-0.25,0.071-0.513,0.071-0.786c0-1.738-1.394-3.144-3.119-3.144h-0.036c-0.036,0-0.071,0-0.143,0
			c-0.19,0-0.369,0.036-0.584,0.084l-48.479,10.774L72.23,287.52c-1.477,0.31-2.5,1.596-2.5,3.072c0,1.487,1.023,2.773,2.5,3.095
			l64.421,14.358L183.214,318.404z"/>
		<path fill="#414042" d="M497.676,488.214l-17.334-43.408c-0.369-0.904-1.179-1.595-2.096-1.845
			c-0.25-0.096-0.56-0.144-0.846-0.144c-0.666,0-1.356,0.215-1.904,0.644c-13.145,9.821-27.692,17.846-43.193,23.811
			c-0.988,0.381-1.763,1.274-1.953,2.346c-0.226,1.071,0.143,2.19,0.917,2.929l37.681,35.371l48.183,45.183
			c0.631,0.595,1.393,0.881,2.179,0.881c0.619,0,1.214-0.227,1.786-0.596c1.214-0.81,1.702-2.369,1.106-3.773L497.676,488.214z"/>
		<path fill="#414042" d="M576.241,397.445l-37.396-29.573c-0.548-0.44-1.238-0.667-1.94-0.667c-0.25,0-0.524,0.023-0.81,0.096
			c-0.917,0.25-1.691,0.928-2.096,1.81c-6.536,15.251-15.168,29.608-25.669,42.646c-0.666,0.846-0.881,1.977-0.512,3.024
			c0.357,1.012,1.179,1.785,2.274,2.048l51.051,12.048l64.243,15.132c0.25,0.06,0.476,0.084,0.702,0.084
			c1.215,0,2.346-0.679,2.857-1.774c0.667-1.345,0.286-2.964-0.881-3.869L576.241,397.445z"/>
		<path fill="#414042" d="M222.669,409.363c0.369-1.001,0.179-2.132-0.44-3.001c-9.847-13.155-17.883-27.728-23.871-43.276
			c-0.369-0.94-1.096-1.644-2.131-1.905c-0.227-0.071-0.513-0.107-0.81-0.107c-0.703,0-1.394,0.227-1.953,0.691l-37.788,29.883
			l-51.825,40.991c-1.179,0.929-1.536,2.548-0.917,3.869c0.548,1.119,1.691,1.773,2.869,1.773c0.227,0,0.477-0.012,0.738-0.071
			l64.231-15.144l49.622-11.716C221.454,411.1,222.288,410.363,222.669,409.363z"/>
		<path fill="#414042" d="M368.394,595.281l14.322-64.624l10.798-48.766c0.072-0.285,0.155-0.571,0.155-0.881
			c0-1.738-1.44-3.179-3.203-3.179l0,0l0,0c-0.035,0-0.035,0-0.106,0c-0.107,0-0.227,0.023-0.334,0.035
			c-7.894,0.988-15.311,1.465-22.656,1.465c-8.894,0-17.918-0.667-26.883-2c-0.143-0.036-0.285-0.06-0.44-0.06
			c-0.881,0-1.69,0.369-2.321,1.023c-0.703,0.774-0.988,1.834-0.762,2.846l10.94,49.504l14.323,64.636"/>
		<path fill="#414042" d="M295.234,464.331c-15.168-6.619-29.383-15.275-42.205-25.764c-0.548-0.477-1.286-0.715-2.013-0.715
			c-0.226,0-0.512,0.036-0.773,0.119c-0.988,0.238-1.763,0.94-2.131,1.857l-18.037,45.075l-24.573,61.421
			c-0.548,1.369-0.036,2.929,1.143,3.81c0.548,0.369,1.179,0.523,1.798,0.523c0.762,0,1.571-0.298,2.167-0.857l48.182-45.217
			l37.312-35.051c0.81-0.726,1.179-1.785,0.964-2.845C296.924,465.64,296.186,464.748,295.234,464.331z"/>
		<path id="sun_1_" fill="#414042" d="M367.369,167.524c-71.624,0-129.724,58.254-129.724,130.128
			c0,71.839,58.1,130.104,129.724,130.104c71.66,0,129.759-58.254,129.759-130.104C497.128,225.778,439.03,167.524,367.369,167.524z
			"/>
	</g>
</g>
<g id="nasjonalregnskap" display="none">
	<g display="inline">
		<polygon fill="#414042" points="247.814,295.997 247.814,595.281 310.723,595.281 310.723,245.41 		"/>
		<g>
			<polygon fill="#414042" points="132.484,388.73 132.484,595.281 195.346,595.281 195.346,338.167 			"/>
		</g>
		<g>
			<polygon fill="#414042" points="473.472,266.043 473.472,595.281 536.369,595.281 536.369,202.395 			"/>
		</g>
		<polygon fill="#414042" points="339.76,161.381 427.6,229.647 434.624,236.635 435.434,235.802 436.303,236.469 442.315,228.885 
			568.705,100.948 591.814,124.08 608.505,62.04 625.233,0 563.098,16.608 501.117,33.097 525.499,57.635 430.088,154.142 
			338.915,83.315 337.594,85.018 69.73,295.39 107.804,343.358 		"/>
		<polygon fill="#414042" points="358.178,247.208 358.178,595.281 421.075,595.281 421.075,295.593 358.797,247.208 		"/>
	</g>
</g>
<g id="offentlig" display="none">
	<g display="inline">
		<g id="XMLID_3_">
			<g>
				<path fill="#414042" d="M421.266,206.955c-1.679,43.658-4.773,90.221-9.738,133.808c-14.108,125.89-77.315,196.49-164.44,256.34
					c-95.661-55.813-157.595-146.701-172.44-282.127c-3.894-34.801-4.774-72.613-4.905-109.628c11.286,0,22.573,0,33.859,0
					c0.333-19.274-18.203-82.089-17.668-98.34c28.752-17.87,92.697-12.227,133.748-12.894c-1.953-19.228-6.858-42.729,8.06-54.825
					c9.941-8.061,9.477-5.238,9.668-9.668c-0.203,4.43-19.812,2.144-16.121-8.071c0.203-6.786,8.597-5.37,14.514-6.453
					c-2.691-12.894,3.69-16.728,16.12-14.513c2.548,2.345,1.404,8.262,1.607,12.894c6.655,2.488,17.668,0.607,14.513,12.894
					c-0.071,7.453-12.228,2.821-14.513,8.061c19.478,8.06,23.645,38.288,12.894,59.646c16.858-1.607,132.533-4.227,139.058,17.739
					c1.881,6.251-19.812,71.41-21.359,93.507C396.074,206.289,411.861,203.395,421.266,206.955z"/>
			</g>
		</g>
	</g>
	<path display="inline" fill="#FFFFFF" d="M379.811,141.951c-4.548,6.429,3.905,14.048,0,19.347
		c-7.036-1.548-8.703-8.441-17.716-8.061c-2.345,4.096-5.714,7.191-6.44,12.918c3.56,1.821,4.357,6.405,8.024,8.06
		c7.119,0.381,10.298-9.084,16.12-4.846c1.512,30.657-69.66,27.752-59.659-3.214c7.001,0.523,7.191,7.834,16.12,6.477
		c2.953-5.346,5.786-12.645,1.631-17.764c-7.988-6.06-13.596,7.655-19.347,3.227c-0.833-8.334,6.93-8.107,4.846-17.739
		c-3.477-5.036-15.441-3.762-19.382,0c-1.977,9.144,8.929,11.608,3.25,19.323c-6.131-1.357-6.667-8.37-16.132-6.43
		c-4.5,2.882-4.5,14.847,0,17.716c6.857,5.262,11.203-8.786,17.716-3.179c6.06,33.312-72.981,27.406-59.624-3.25
		c8.441,0.345,10.406,11.357,19.347,6.44c3.905-5.834,1.286-16.691-3.25-19.311c-7.834-0.762-11.049,9.465-17.716,4.846
		c1.215-6.894,7.536-8.632,6.441-17.752c-3.869-5.167-15.632-6.715-20.942-1.606c-2.917,11.346,10.941,14.369,3.227,20.953
		c-5.56-1.548-10.417-10.144-16.12-6.429c-5.453,2.429-6.965,15.441-1.596,19.311c11.549,3.441,13.632-9.238,20.979-4.81
		c0.833,33.729-68.148,30.098-61.29-1.631c6.773,0.833,11.69,10.072,17.751,6.44c5-2.571,4.274-16.655,0-19.311
		c-9.62-2.119-9.953,5.071-17.751,4.846c-0.191-7.191,5.643-8.322,4.81-16.145c-3.107-4.5-11.322-6.512-17.716-3.214
		c-4.846,8.524,4.394,11.346,3.25,20.953c-7.798-0.678-11.584-8.929-19.382-4.845c-2.465,3.298-2.465,14.465,0,17.715
		c1.286,0.381,3.179,0.071,3.25,1.667c9.62,1.965,10.334-11.357,17.716-6.477c2.083,31.765-64.505,29.836-61.255,1.631
		c5.561-4.048,7.989,6.286,16.12,4.846c7.655-2.5,8.513-16.966,1.596-20.978c-9.203-1.131-12.941,9.917-19.347,6.429
		c-1.404-7.881,4.655-8.25,3.227-16.12c-2.798-4.215-11.203-3.821-16.132-1.607c5,22.121,10.56,45.979,14.536,64.493
		c89.721,0,179.478,0,269.233,0c4.013-21.764,11.656-39.824,14.501-62.874C388.216,140.069,384.323,140.069,379.811,141.951z"/>
	<g display="inline">
		<path fill="#FFFFFF" d="M379.168,114.996c-0.571,10.728,0.119,17.264-6.477,24.169c-15.823-4.56-28.621-12.228-45.122-16.108
			C316.819,95.233,370.429,105.852,379.168,114.996z"/>
		<path fill="#FFFFFF" d="M155.093,105.317c1.964,2.881,8.024,10.072,3.179,14.501c-13.895,7.06-29.146,12.763-45.135,17.739
			c-3.404-6.774-6.06-14.37-4.846-25.8C117.054,102.769,137.794,105.769,155.093,105.317z"/>
		<path fill="#FFFFFF" d="M232.479,110.151c-7.084,11.357-38.05,6.929-51.635,6.452C171.26,91.614,225.74,102.352,232.479,110.151z"
			/>
		<path fill="#FFFFFF" d="M308.223,113.377c-7.691,11.941-40.587,1.929-54.813,0c2.31-13.311,24.561-6.583,37.062-9.69
			C303.639,105.186,309.473,103.508,308.223,113.377z"/>
	</g>
</g>
<g id="priser" display="none">
	<path display="inline" fill="#414042" d="M618.125,358.157L370.073,40.003c-2.632-5.715-8.084-9.917-14.608-10.715L119.698,0.119
		c-4.857-0.535-9.811,0.762-13.691,3.763c-3.882,3.06-6.394,7.512-6.989,12.357l-29.156,235.72
		c-0.727,5.798,1.667,11.477,5.774,15.501l249.064,319.499c3.024,3.881,7.489,6.417,12.347,7c0.762,0.071,1.523,0.144,2.273,0.144
		c4.12,0,8.144-1.369,11.418-3.905l264.161-205.991C622.994,377.885,624.423,366.228,618.125,358.157z M213.037,140.438
		c-15.537,12.132-37.955,9.382-50.087-6.202c-12.144-15.573-9.346-37.955,6.19-50.123c15.561-12.096,37.991-9.346,50.123,6.227
		C231.384,105.888,228.586,128.306,213.037,140.438z"/>
</g>
<g id="sosiale" display="none">
	<g display="inline">
		<path fill="#414042" d="M356.833,104.388l-85.173,8.953c-0.833-15.287-5.334-26.919-13.478-34.967
			c-8.155-8.061-19.465-12.084-33.919-12.084c-13.417,0-23.632,2.94-30.656,8.81c-7.024,5.905-10.513,12.572-10.513,19.99
			c0,10.131,4.738,19.846,14.251,29.097c6.393,6.215,27.549,20.847,63.48,44.003c35.931,23.156,59.671,39.646,71.231,49.587
			c17.953,15.061,30.812,29.955,38.562,44.718c7.739,14.751,11.62,31.169,11.62,49.087c0,19.191-4.702,36.932-14.096,53.146
			c-9.394,16.191-23.49,30.919-42.277,44.122c12.584,11.597,21.978,23.907,28.181,37.039c6.191,13.096,9.299,26.954,9.299,41.622
			c0,30.562-11.454,56.17-34.384,76.803c-22.918,20.656-55.85,30.967-98.805,30.967c-41.289,0-74.327-10.191-99.103-30.669
			c-24.775-20.419-39.431-47.658-43.991-81.769l84.863-10.202c3.727,18.572,10.774,32.562,21.228,41.967
			c10.418,9.417,23.585,14.097,39.491,14.097c13.632,0,24.466-3.548,32.502-10.691c8.061-7.12,12.085-15.728,12.085-25.823
			c0-9.715-3.822-18.406-11.466-26.05c-7.846-7.607-35.348-26.514-82.529-56.54c-47.182-30.037-77.898-54.956-92.149-74.755
			c-14.239-19.858-21.358-42.027-21.358-66.647c0-20.216,4.655-38.991,13.93-56.35c9.298-17.347,23.751-31.573,43.359-42.718
			c-10.31-11.144-18.108-22.501-23.37-34.109c-5.274-11.513-7.905-23.299-7.905-35.3c0-27.859,10.905-51.42,32.681-70.767
			C150.211,9.668,180.809,0,220.252,0c40.455,0,72.326,9.668,95.554,28.955C339.023,48.302,352.714,73.398,356.833,104.388z
			 M279.102,371.051c9.084-8.251,15.846-16.156,20.287-23.681c4.44-7.571,6.655-14.799,6.655-21.87
			c0-6.774-2.382-13.787-7.132-21.037c-4.738-7.191-17.751-18.562-39.015-34.062l-84.565-61.338
			c-7.013,4.144-13.215,10.013-18.573,17.656c-5.369,7.644-8.06,15.811-8.06,24.478c0,20.847,13.941,40.658,41.824,59.469
			L279.102,371.051z"/>
	</g>
</g>
<g id="svalbard" display="none">
	<path display="inline" fill="#414042" d="M579.991,371.193c-4.465,0-8.619-2.25-11.024-6.048c-5.096-8.001-5.5-20.299,3.631-28.395
		c1.738-1.536,3.513-2.727,5.274-3.751c-3.333-1.214-6.894-2.881-10.524-4.81v7.322c0-0.048,0.023-0.071,0.023-0.071
		c0.25,0,1.679,9.393-4.571,17.251c-3.144,4-9.18,8.738-20.133,8.738c-14.691,0-76.41,0.584-76.41,0.584
		c-10.75-1.929-24.358-6.536-26.168-18.442c-0.679-4.44-0.06-12.882,11.738-19.441c9.084-5.096,19.371-8.953,26.967-11.489
		c-1.727-1.321-3.107-2.346-4.369-3.298c-5.727-4.19-9.501-7.024-15.383-13.322c-8.071-8.632-10.263-26.717-10.763-39.67
		l-25.514-8.096c-4.131,19.299-11.036,48.432-17.072,58.48c-4.702,7.786-13.311,34.515-17.62,49.504
		c-1.512,5.25-6.096,8.953-11.524,9.394c-2.155,0.19-52.54,4.096-71.779,4.096c-4.881,0-7.524-0.238-9.738-0.81
		c-7.168-1.953-12.072-7.418-15.156-12.418h-32.859c-6.965,0-12.715-5.488-13.037-12.489c-0.523-11.905,5.43-25.954,19.752-28.692
		c4.679-0.857,12.215-1.738,19.037-2.393c-1.286-4.811-2.857-10.275-4.572-15.835c-4.31-14.097-4.523-52.552-4.369-71.553
		c-5.846-2.536-12.144-5.81-15.691-9.394c-4.786-4.786-5.369-11.072-5.882-16.608c-0.214-2.321-0.678-7.203-1.619-8.251
		c-6.393-2.25-30.871-5.786-50.539-8.596c-26.954-3.893-43.812-6.369-50.456-8.846c-7.477-2.702-11.179-6.048-14.072-8.953
		c-4.655-0.988-29.395-3.904-37.765-9.655c-5.869-3.821-9.941-12.644-12.274-19.263c-7.632-24.312-5.905-29.122-4.846-32.026
		c1.215-3.488,4.048-11.561,34.824-23.514l0.631-4.071c0.619-3.941,2.988-7.358,6.465-9.322l32.312-18.275
		c3.096-8.369,10.251-22.43,23.858-24.823c11.835-1.965,22.157,3.096,27.896,6.917c19.168-0.798,58.54-2.762,70.469-4.512
		c8.918-1.31,19.514-7.501,27.252-11.941c4.715-2.763,8.632-4.882,11.168-5.822c7.012-2.477,30.835-10.917,51.027-7.94
		c9.846,1.381,17.668,5.786,25.252,10.048c8.107,4.548,15.763,8.846,26.192,9.394l4.94,0.107c16.847,0,45.384-3.167,66.23-5.429
		c10.965-1.238,20.275-2.251,25.848-2.62c18.691-1.31,52.051,4.727,73.707,17.728c21.537,12.918,65.351,74.231,69.862,87.09
		c0.346,0.977,1.465,2.762,2.512,4.465c5.453,8.965,15.502,25.347-1.833,50.539c2.179,10.917,4.477,28.407-10.978,75.208
		c-3.119,9.321,0.572,19.299,3.227,22.572l4.299,4.953c6.631,7.488,14.869,16.858,18.061,25.812
		c4.631,12.93-6.203,40.812-12.739,52.183c-3.452,6-9.072,14.18-17.93,15.834c-13.287,2.513-49.158,2.655-53.194,2.655
		C580.028,371.193,580.003,371.193,579.991,371.193z M585.98,307.844c7.728,0,16.228,4.881,21.312,12.668
		c4.298,6.631,5.179,13.977,2.404,20.299c-0.618,1.345-1.345,2.607-2.154,3.715c7.5-0.322,14.405-0.727,18.751-1.298
		c5.286-6.346,13.144-29.026,12.668-35.324c-1.179-2.834-8.394-11.072-12.703-15.954l-4.941-5.667
		c-8.31-10.274-13.632-29.788-7.786-47.349c14.097-42.693,11.453-55.479,10.191-61.6c-0.94-4.512-2.346-11.322,3.273-19.072
		c8.691-12.024,6.405-15.728,1.857-23.229c-1.679-2.702-3.571-5.821-4.846-9.394c-3.607-9.107-43.24-64.159-58.694-73.397
		c-15.394-9.251-39.669-14.203-54.671-14.203l-3.857,0.106c-5.321,0.369-14.251,1.346-24.751,2.513
		c-22.621,2.477-50.813,5.607-69.088,5.607l-6.274-0.143c-16.537-0.882-28.24-7.43-37.646-12.751
		c-5.953-3.346-11.108-6.215-16.145-6.918c-14.834-2.262-32.931,4.655-38.467,6.668c-1.596,0.619-3.977,2.071-6.965,3.821
		c-9.56,5.536-22.668,13.108-36.502,15.144c-17.037,2.548-75.435,4.953-77.911,5.024c-3.631,0.238-6.833-1.06-9.369-3.429
		c-1.144-0.988-5.536-4.119-9.358-4.119c-1.856,0.988-4.857,7.25-5.904,11.322c-0.905,3.429-3.144,6.298-6.215,8.048l-31.24,17.691
		l-0.857,5.43c-0.727,4.702-4,8.667-8.513,10.263c-9.763,3.464-20.085,8.131-25.145,11.179c0.786,3.715,2.273,9.251,3.846,14.275
		c0.833,2.321,2.548,5.893,3.345,6.905c1.107,0,11.739,2.333,22.99,3.654c9.667,1.024,13.941,4.655,17.489,8.228
		c1.273,1.262,1.857,1.845,4.513,2.833c4.512,1.631,28.014,5.024,45.157,7.489c29.026,4.167,47.206,6.881,55.04,9.631
		c17.108,5.882,18.656,22.598,19.418,30.646c0.048,0.583,0.083,1.131,0.131,1.679c2.881,1.536,8.263,3.929,13.037,5.607
		c5.262,1.893,8.75,7,8.643,12.561c-0.487,24.299,0.144,62.85,3.084,72.41c5.036,16.322,8.811,32.038,8.811,32.038
		c0.893,3.714,0.106,7.631-2.132,10.715c-0.654,0.857-1.416,1.702-2.262,2.393c1.262,1.346,2.238,2.977,2.857,4.811
		c0.5,1.44,1.512,3.345,2.298,4.393c0.273-0.095,1.167-0.25,2.06-0.095c13.561,0,45.265-2.191,60.813-3.369
		c4.024-13.156,11.763-37.062,17.728-47.04c3.822-6.321,11.668-38.3,16.764-64.313c0.702-3.655,2.94-6.811,6.131-8.691
		c3.227-1.929,7.084-2.417,10.596-1.238l48.36,15.287c5.524,1.738,9.228,6.905,9.132,12.691c-0.25,13.072,1.679,28.085,4.024,31.502
		c4.286,4.536,7.203,6.655,11.584,9.905c2.857,2.072,6.238,4.584,10.715,8.144c9.68,7.715,10.978,15.668,10.37,20.906
		c-0.965,8.228-7.001,13.835-12.334,16.395c-0.822,0.285-3.132,0.929-6.358,1.881c17.537-0.214,39.943-0.345,49.194-0.393
		l-0.238-31.026c0-4.929,2.763-9.441,7.132-11.62c4.429-2.25,9.644-1.81,13.608,1.096c9.321,6.786,20.441,13.322,23.835,14.072
		C585.873,307.844,585.92,307.844,585.98,307.844z"/>
</g>
<g id="teknologi" display="none">
	<g display="inline">
		<path fill="#414042" d="M367.465,595.281c-32.003,0-58.755-23.681-60.909-53.944l-1.144-16.037l16.073,0.881
			c1.154,0,23.525,0,45.968,0c22.501,0,45.015,0,46.551-0.036l15.405-0.19l-1.012,15.37
			C426.242,571.6,399.49,595.281,367.465,595.281z M340.879,554.563c11.895,15.001,41.277,15.001,53.207,0
			C378.287,554.563,356.666,554.563,340.879,554.563z"/>
		<path fill="#414042" d="M367.703,145.546c-87.555,0.036-158.798,71.315-158.821,158.881
			c0.012,53.361,26.014,101.948,69.922,131.581v17.847c0.012,29.966,24.442,54.385,54.42,54.385h68.981
			c29.966,0,54.385-24.431,54.408-54.385v-17.847c43.92-29.633,69.91-78.22,69.934-131.581
			C526.524,216.848,455.281,145.57,367.703,145.546z M432.863,415.267v22.323c-0.024,19.323-15.704,35.015-35.086,35.051h-60.1
			c-19.395-0.036-35.062-15.692-35.098-35.051v-22.323c-36.503-22.097-60.957-62.23-60.969-107.96
			c0.012-69.684,56.444-126.14,126.104-126.14c69.671,0,126.092,56.468,126.104,126.14
			C493.807,353.037,469.365,393.171,432.863,415.267z"/>
		<path fill="#414042" d="M373.763,101.127c-17.751,0-32.169-14.406-32.169-32.146V32.18C341.594,14.406,356.012,0,373.763,0
			S405.92,14.406,405.92,32.18v36.801C405.92,86.72,391.514,101.127,373.763,101.127z"/>
		<path fill="#414042" d="M140.377,359.073h-38.479c-17.764,0-32.169-14.417-32.169-32.192c0-17.728,14.405-32.146,32.169-32.146
			h38.479c17.751,0,32.169,14.418,32.169,32.146C172.534,344.656,158.128,359.073,140.377,359.073z"/>
		<path fill="#414042" d="M192.655,164.011c-8.215,0-16.441-3.107-22.728-9.394l-19.728-19.728
			c-12.561-12.572-12.584-32.883-0.012-45.443c12.501-12.644,32.883-12.644,45.468-0.036l19.728,19.692
			c12.56,12.572,12.584,32.931,0.012,45.491C209.132,160.916,200.894,164.011,192.655,164.011z"/>
		<path fill="#414042" d="M632.067,359.073h-38.479c-17.752,0-32.157-14.417-32.157-32.192c0-17.728,14.405-32.146,32.157-32.146
			h38.479c17.751,0,32.157,14.418,32.157,32.146C664.236,344.656,649.83,359.073,632.067,359.073z"/>
		<path fill="#414042" d="M541.298,164.011c-8.227,0-16.453-3.107-22.739-9.417c-12.561-12.561-12.549-32.919,0.012-45.491
			l19.728-19.692c12.597-12.561,32.979-12.596,45.468,0.036c12.572,12.561,12.549,32.883-0.024,45.443l-19.728,19.728
			C557.764,160.916,549.526,164.011,541.298,164.011z"/>
	</g>
</g>
<g id="transport" display="none">
	<path display="inline" fill="#414042" d="M624.875,178.56H460.34c-2.452-40.289-47.099-71.41-104.078-71.41
		c-56.98,0-101.614,31.121-104.079,71.41H87.635c-9.905,0-17.905,8.061-17.905,17.906v380.908c0,9.929,8,17.906,17.905,17.906
		h537.24c9.906,0,17.918-7.978,17.918-17.906V196.467C642.793,186.621,634.781,178.56,624.875,178.56z M356.262,142.963
		c38.015,0,64.896,18.132,68.088,35.598H288.161C291.352,161.094,318.236,142.963,356.262,142.963z"/>
</g>
<g id="Utenriksøkonomi" display="none">
	<g display="inline">
		<path fill="#414042" d="M480.485,18.989c58.027,21.942,97.471,54.111,134.902,99.21c-13.953,7.024-28.823,12.989-43.599,18.513
			C555.62,100.935,499.7,29.669,415.337,0C439.601,5.12,461.198,11.632,480.485,18.989L480.485,18.989z"/>
		<path fill="#414042" d="M419.064,14.941c47.896,18.073,80.922,60.517,102.197,101.698c5.191,10.167,9.441,20.061,13.822,30.55
			c-46.586,11.667-94.935,17.787-143.854,17.049c0.345-52.158,0.166-104.829,0.535-156.88c1.894,0.333,4.084,1.035,6.107,1.404
			C405.361,10.346,412.289,12.37,419.064,14.941L419.064,14.941z"/>
		<path fill="#414042" d="M337.106,0.988c-58.54,15.204-113.342,57.469-149.165,123.461c-14.668-6.548-29.419-13.357-43.194-21.347
			C173.63,62.79,243.372,12.156,337.106,0.988L337.106,0.988z"/>
		<path fill="#414042" d="M353.309,9.31c-0.107,2.096-0.404,3.238-0.369,5.369c-0.429,48.992-0.679,98.138-1.023,147.201
			c-43.443-3.679-86.113-11.703-127.414-24.954C248.016,82.601,286.828,25.99,353.309,9.31L353.309,9.31z"/>
		<path fill="#414042" d="M639.758,147.903c0.821,1.25,1.179,1.917,2.083,3.132c26.609,41.038,41.943,87.577,44.896,134.39
			c-28.824-1.035-57.528-1.845-86.209-2.726c-1.238-37.526-6.821-75.006-17.358-111.604
			C602.672,164.464,621.864,157.214,639.758,147.903L639.758,147.903z"/>
		<path fill="#414042" d="M546.632,181.62c0.286,1.619,0.523,2.869,0.821,4.453c8.549,31.097,13.025,63.207,14.132,95.113
			c-57.016-1.952-114.306-3.643-171.404-5.846c0.226-25.561,0.785-51.253,0.977-76.826
			C443.899,199.503,496.307,193.835,546.632,181.62L546.632,181.62z"/>
		<path fill="#414042" d="M352.261,197.002c-0.226,25.74-0.81,51.254-1.012,76.97c-52.051-1.797-104.066-4.167-156.272-5.846
			c1.702-33.275,7.238-65.671,17.013-97.507c1.619,0.619,3.667,0.584,5.453,1.215C261.029,185.001,306.389,193.692,352.261,197.002
			L352.261,197.002z"/>
		<path fill="#414042" d="M687.094,320.464c-2.929,50.289-20.989,99.233-50.789,140.986c-17.715-10.347-36.121-19.514-55.218-27.24
			c11.667-37.848,18.572-77.446,19.953-117.056l2.548,0.154l2.477,0.071C633.09,318.356,659.986,319.689,687.094,320.464
			L687.094,320.464z"/>
		<path fill="#414042" d="M119.757,129.938c1.44,0.737,3.464,1.69,4.798,2.571c16.37,9.536,33.467,17.668,51.11,24.883
			c-10.894,35.562-17.561,72.184-19.561,109.293c-28.657-1-57.35-2.548-85.935-3.345c4.452-47.563,20.906-93.828,49.61-133.45
			L119.757,129.938z"/>
		<path fill="#414042" d="M562.181,315.713c-1.536,35.526-7.751,70.97-18.085,105.02c-49.789-15.68-101.864-24.001-154.427-26.728
			c0.226-28.038,0.131-56.385,0.345-84.435l2.477,0.143l2.477,0.083C450.542,311.784,506.581,313.653,562.181,315.713
			L562.181,315.713z"/>
		<path fill="#414042" d="M351.178,308.248c-0.238,28.121-0.44,56.897-0.548,85.03c-47.765,0.405-94.804,5.56-140.462,16.608
			c-9.811-34.896-14.632-71.076-15.549-106.865c1.583,0,3.227,0.155,4.965,0.155C250.075,304.927,300.52,306.546,351.178,308.248
			L351.178,308.248z"/>
		<path fill="#414042" d="M155.676,301.546c0.667,40.038,6.738,80.018,17.906,118.961c-19.395,6.477-38.539,14.061-56.433,23.191
			c-29.479-44.026-45.432-94.744-47.42-145.546c1.821,0.119,3.19,0.19,4.988,0.19C101.601,299.379,128.841,300.665,155.676,301.546
			L155.676,301.546z"/>
		<path fill="#414042" d="M532.548,453.972c-21.979,50.766-56.195,103.329-115.104,124.676c-8.977,3.167-19.395,4.857-29.192,6.191
			c0.404-52.123,0.94-104.531,1.321-156.618c1.738,0.25,3.905,0.035,5.536,0.512C442.03,431.554,488.092,439.948,532.548,453.972
			L532.548,453.972z"/>
		<path fill="#414042" d="M568.788,467.105c1.667,0.595,2.644,1.547,4.25,2.321c13.168,5.56,26.454,12.286,38.968,19.025
			c-32.705,32.573-115.009,92.244-201.515,106.829C501.986,565.278,551.966,506.857,568.788,467.105L568.788,467.105z"/>
		<path fill="#414042" d="M351.118,427.733c-0.012,1.69,0,3.227-0.012,4.846c-0.31,49.468-1.394,98.769-1.655,148.379
			c-62.338-18.584-99.983-72.695-123.044-124.449c-4.941-8.238-6.774-16.12,6.75-15.822
			C271.422,431.876,311.342,428.424,351.118,427.733L351.118,427.733z"/>
		<path fill="#414042" d="M185.071,455.009c0.513,1.429,1.084,2.977,1.644,4.488c13.013,32.872,58.266,92.721,139.486,129.783
			c-76.292-15.787-159.607-73.064-184.537-116.723C155.569,465.593,170.2,460.45,185.071,455.009L185.071,455.009z"/>
	</g>
</g>
<g id="valg" display="none">
	<path display="inline" fill="#414042" d="M295.841,357.109L153.497,180.941L377.394,0l142.379,176.168L295.841,357.109z
		 M207.084,186.633l94.459,116.889l164.654-133.033L371.703,53.599L207.084,186.633z"/>
	<polygon display="inline" fill="#414042" points="168.046,274.531 444.887,274.531 558.359,595.281 69.73,595.281 	"/>
</g>
<g id="varehandel" display="none">
	<path display="inline" fill="#414042" d="M633.209,233.719H474.984l-65.373,59.397c-17.775,16.133-50.373,9.215-72.814-15.524
		l-14.645-16.073c-7.81-8.619-12.465-18.191-15.632-27.8H107.291c-20.739,0-37.562,16.835-37.562,37.562l53.635,286.438
		c0,20.764,16.811,37.562,37.562,37.562h422.423c20.739,0,37.562-16.799,37.562-37.562l49.86-286.438
		C670.772,250.553,653.949,233.719,633.209,233.719z M194.977,507.607l-29.848-171.476h107.627l10.429,171.464h-88.208V507.607z
		 M420.195,507.607h-88.196l-10.584-171.464h107.603L420.195,507.607z M556.443,507.607h-88.197l9.453-171.464h107.603
		L556.443,507.607z"/>
	<path display="inline" fill="#414042" d="M408.039,261.709c-16.608,15.085-42.301,13.835-57.373-2.75l-9.811-10.822
		c-15.084-16.62-13.858-42.301,2.75-57.337L542.048,10.524c16.585-15.036,42.301-13.822,57.373,2.786l9.811,10.787
		c15.072,16.62,13.847,42.336-2.75,57.373L408.039,261.709z"/>
</g>
<g id="virksomheter" display="none">
	<path display="inline" fill="#414042" d="M219.585,113.663c-21.799,0-39.753-14.18-46.456-33.657
		c3.477-24.049,23.276-42.801,48.29-42.801h383.943l11.394,0.107C611.934,14.941,592.981,0,569.146,0H185.214
		c-15.561,0-28.859,7.584-37.955,18.716c-2.763,3.084-4.941,6.524-6.834,10.191c-0.333,0.69-0.81,1.273-1.096,2
		c-2.81,6.084-4.821,12.62-4.821,19.799v96.626c-35.979,1.369-64.778,30.752-64.778,67.053c0,36.312,28.8,65.683,64.778,67.064
		v104.96c-35.979,1.369-64.778,30.752-64.778,67.063c0,36.301,28.8,65.684,64.778,67.064v25.085
		c0,27.431,22.191,49.659,49.67,49.659h383.943c27.442,0,49.671-22.229,49.671-49.659V113.699L219.585,113.663z M137.044,488.868
		c-18.716,0-33.896-15.191-33.896-33.907c0-18.715,15.18-33.883,33.896-33.883c18.715,0,33.895,15.155,33.895,33.883
		C170.939,473.665,155.759,488.868,137.044,488.868z M137.044,248.292c-18.716,0-33.896-15.192-33.896-33.919
		c0-18.716,15.18-33.907,33.896-33.907c18.715,0,33.895,15.191,33.895,33.907C170.939,233.1,155.759,248.292,137.044,248.292z"/>
</g>
<g id="utdanning" display="none">
	<g display="inline">
		<path fill="#414042" d="M400.979,11.596c-8.429-12.049-26.312-15.323-38.431-6.918c-75.018,52.075-69.779,129.7-69.529,132.938
			c1.06,14.347,13.156,25.55,27.55,25.55l1.929-0.072c15.12-1.047,26.621-14.263,25.656-29.371c-0.131-2-2.56-50.003,45.933-83.66
			C406.586,41.36,409.682,24.109,400.979,11.596z"/>
		<path fill="#414042" d="M203.679,29.026c-5.095-3.132-10.607-5.93-16.37-8.227h-0.012c-45.099-17.978-95.971-3.489-98.09-2.87
			c-4.965,1.453-8.072,6.37-7.203,11.466c0.512,2.762,12.251,68.052,60.267,98.03c5.095,3.167,10.607,5.977,16.394,8.227
			c45.087,17.978,95.983,3.488,98.126,2.882c4.988-1.465,8.024-6.37,7.155-11.501C263.469,124.295,251.706,59.088,203.679,29.026z"
			/>
		<path fill="#414042" d="M506.237,189.727c-54.373-40.109-125.557-36.395-183.322,2.834h-0.012
			c-57.742-39.229-128.926-42.943-183.323-2.834C63.134,246.136,48.24,372.92,100.827,465.14
			c52.574,92.244,99.638,130.141,145.379,130.141c45.801,0,59.242-20.156,76.398-21.181c17.144-0.977,31.252,21.181,77.005,21.181
			s92.828-37.896,145.415-130.141C597.623,372.92,582.706,246.136,506.237,189.727z"/>
	</g>
	<path display="inline" fill="#FFFFFF" d="M226.49,214.301c0,0-79.375,9.239-92.947,89.924
		c-12.024,71.541,57.23,132.318,57.23,132.318s-30.479-90.852-17.799-132.318C190.774,246.053,226.49,214.301,226.49,214.301z"/>
</g>
<g id="Logo" display="none">
	<ellipse display="inline" fill="#FFFFFF" cx="368.394" cy="297.628" rx="289.782" ry="288.794"/>
	<g display="inline">
		<path fill="#414042" d="M357.274,215.908l31.74,141.534L654.33,211.598C617.28,89.161,503.308,0,368.381,0
			C203.442,0,69.73,133.212,69.73,297.616c0,23.562,2.833,46.408,8.024,68.41L357.274,215.908z"/>
		<path fill="#414042" d="M374.846,390.397L341.142,245.41L82.802,384.885c37.431,121.771,151.117,210.396,285.579,210.396
			c164.929,0,298.664-133.271,298.664-297.665c0-22.382-2.583-44.17-7.274-65.123L374.846,390.397z"/>
	</g>
</g>
<g id="norway_2_">
	<path fill="#414042" d="M241.621,317.822l-16.464-3.686c-3.068-0.688-7.26,0.697-9.315,3.076l-17.477,20.23
		c-2.055,2.379-5.794,5.868-8.31,7.755l-6.273,4.704c-2.516,1.887-4.938,5.976-5.384,9.088l-2.249,15.691
		c-0.446,3.112-3.041,6.938-5.768,8.504l-3.508,2.015c-2.727,1.565-7.468,3.405-10.536,4.09l-23.438,5.228
		c-3.068,0.685-6.364,3.693-7.323,6.688l-13.814,43.107c-0.959,2.994-1.412,7.994-1.007,11.111l10.053,77.269
		c0.405,3.117,1.547,8.109,2.537,11.093l9.823,29.605c0.99,2.983,3.618,7.244,5.84,9.469l7.329,7.334
		c2.222,2.225,6.608,3.905,9.748,3.735l23.19-1.255c3.139-0.17,7.56-2.093,9.825-4.273l41.769-40.23
		c2.265-2.182,5.418-6.185,7.007-8.897l13.407-22.875c1.589-2.713,3.196-2.378,3.569,0.744l4.406,36.808
		c0.374,3.122,1.947,3.438,3.497,0.702l27.076-47.8c1.55-2.735,2.847-7.546,2.884-10.689l1.751-150.449
		c0.037-3.144,2.246-7.082,4.91-8.751l16.941-10.614c2.664-1.67,5.072-5.598,5.352-8.729l6.959-77.941
		c0.279-3.131,1.981-7.802,3.78-10.38l74.173-106.238c1.8-2.578,5.701-5.536,8.668-6.573l27.684-9.676
		c2.969-1.037,7.025-3.877,9.016-6.311l10.062-12.304c1.99-2.434,6.124-3.841,9.186-3.126l46.53,10.851
		c3.062,0.714,7.771,2.622,10.468,4.24l19.027,11.422c2.695,1.618,5.405,0.42,6.022-2.663l7.401-36.951
		c0.617-3.083,3.327-6.928,6.023-8.546l38.316-22.998c2.696-1.618,6.188-0.713,7.759,2.009l23.229,40.245
		c1.571,2.723,4.937,3.436,7.477,1.583l11.934-8.698c2.54-1.852,4.341-5.924,4.001-9.05l-0.647-5.941
		c-0.34-3.125-2.849-6.963-5.575-8.529l-3.508-2.014c-2.727-1.565-4.729-5.408-4.45-8.54l0.87-9.777
		c0.279-3.131,3.079-5.693,6.223-5.693h0.106c3.144,0,5.716-2.572,5.716-5.716v-0.143c0-3.144-2.484-6.384-5.52-7.2L613.628,2.484
		c-3.036-0.816-8.079-1.221-11.207-0.899l-63.582,6.545c-3.128,0.322-6.272,3.09-6.988,6.151l-5.053,21.596
		c-0.716,3.061-3.743,4.757-6.728,3.768l-6.441-2.135c-2.984-0.989-6.747-4.005-8.361-6.703l-5.668-9.471
		c-1.614-2.698-5.505-4.773-8.645-4.613l-25.172,1.289c-3.14,0.161-5.98,2.85-6.312,5.976l-2.675,25.218
		c-0.332,3.126-2.952,6.732-5.823,8.013l-6.854,3.058c-2.871,1.281-6.37,0.028-7.776-2.783l-4.529-9.056
		c-1.406-2.812-4.564-3.505-7.02-1.54l-68.025,54.453c-2.454,1.965-2.752,5.493-0.661,7.841l7.806,8.768
		c2.091,2.348,1.47,5.356-1.379,6.686l-18.47,8.615c-2.849,1.329-6.343,4.711-7.765,7.515l-60.253,118.853
		c-1.421,2.804-4.722,6.528-7.335,8.277l-13.565,9.075c-2.613,1.749-4.335,5.717-3.828,8.82l0.971,5.934"/>
</g>
</svg>
